%TF.GenerationSoftware,KiCad,Pcbnew,7.0.8*%
%TF.CreationDate,2023-11-27T10:02:50-05:00*%
%TF.ProjectId,Esquema KiCad Proyecto,45737175-656d-4612-904b-694361642050,rev?*%
%TF.SameCoordinates,Original*%
%TF.FileFunction,Legend,Top*%
%TF.FilePolarity,Positive*%
%FSLAX46Y46*%
G04 Gerber Fmt 4.6, Leading zero omitted, Abs format (unit mm)*
G04 Created by KiCad (PCBNEW 7.0.8) date 2023-11-27 10:02:50*
%MOMM*%
%LPD*%
G01*
G04 APERTURE LIST*
%ADD10C,0.150000*%
%ADD11C,0.127000*%
%ADD12C,0.200000*%
%ADD13C,0.120000*%
G04 APERTURE END LIST*
D10*
X178418095Y-40789819D02*
X178418095Y-41599342D01*
X178418095Y-41599342D02*
X178465714Y-41694580D01*
X178465714Y-41694580D02*
X178513333Y-41742200D01*
X178513333Y-41742200D02*
X178608571Y-41789819D01*
X178608571Y-41789819D02*
X178799047Y-41789819D01*
X178799047Y-41789819D02*
X178894285Y-41742200D01*
X178894285Y-41742200D02*
X178941904Y-41694580D01*
X178941904Y-41694580D02*
X178989523Y-41599342D01*
X178989523Y-41599342D02*
X178989523Y-40789819D01*
X179418095Y-40885057D02*
X179465714Y-40837438D01*
X179465714Y-40837438D02*
X179560952Y-40789819D01*
X179560952Y-40789819D02*
X179799047Y-40789819D01*
X179799047Y-40789819D02*
X179894285Y-40837438D01*
X179894285Y-40837438D02*
X179941904Y-40885057D01*
X179941904Y-40885057D02*
X179989523Y-40980295D01*
X179989523Y-40980295D02*
X179989523Y-41075533D01*
X179989523Y-41075533D02*
X179941904Y-41218390D01*
X179941904Y-41218390D02*
X179370476Y-41789819D01*
X179370476Y-41789819D02*
X179989523Y-41789819D01*
X207504819Y-61293333D02*
X208219104Y-61293333D01*
X208219104Y-61293333D02*
X208361961Y-61340952D01*
X208361961Y-61340952D02*
X208457200Y-61436190D01*
X208457200Y-61436190D02*
X208504819Y-61579047D01*
X208504819Y-61579047D02*
X208504819Y-61674285D01*
X207504819Y-60912380D02*
X207504819Y-60293333D01*
X207504819Y-60293333D02*
X207885771Y-60626666D01*
X207885771Y-60626666D02*
X207885771Y-60483809D01*
X207885771Y-60483809D02*
X207933390Y-60388571D01*
X207933390Y-60388571D02*
X207981009Y-60340952D01*
X207981009Y-60340952D02*
X208076247Y-60293333D01*
X208076247Y-60293333D02*
X208314342Y-60293333D01*
X208314342Y-60293333D02*
X208409580Y-60340952D01*
X208409580Y-60340952D02*
X208457200Y-60388571D01*
X208457200Y-60388571D02*
X208504819Y-60483809D01*
X208504819Y-60483809D02*
X208504819Y-60769523D01*
X208504819Y-60769523D02*
X208457200Y-60864761D01*
X208457200Y-60864761D02*
X208409580Y-60912380D01*
X223096666Y-47044819D02*
X223096666Y-47759104D01*
X223096666Y-47759104D02*
X223049047Y-47901961D01*
X223049047Y-47901961D02*
X222953809Y-47997200D01*
X222953809Y-47997200D02*
X222810952Y-48044819D01*
X222810952Y-48044819D02*
X222715714Y-48044819D01*
X223525238Y-47140057D02*
X223572857Y-47092438D01*
X223572857Y-47092438D02*
X223668095Y-47044819D01*
X223668095Y-47044819D02*
X223906190Y-47044819D01*
X223906190Y-47044819D02*
X224001428Y-47092438D01*
X224001428Y-47092438D02*
X224049047Y-47140057D01*
X224049047Y-47140057D02*
X224096666Y-47235295D01*
X224096666Y-47235295D02*
X224096666Y-47330533D01*
X224096666Y-47330533D02*
X224049047Y-47473390D01*
X224049047Y-47473390D02*
X223477619Y-48044819D01*
X223477619Y-48044819D02*
X224096666Y-48044819D01*
X207504819Y-71453333D02*
X208219104Y-71453333D01*
X208219104Y-71453333D02*
X208361961Y-71500952D01*
X208361961Y-71500952D02*
X208457200Y-71596190D01*
X208457200Y-71596190D02*
X208504819Y-71739047D01*
X208504819Y-71739047D02*
X208504819Y-71834285D01*
X208504819Y-70453333D02*
X208504819Y-71024761D01*
X208504819Y-70739047D02*
X207504819Y-70739047D01*
X207504819Y-70739047D02*
X207647676Y-70834285D01*
X207647676Y-70834285D02*
X207742914Y-70929523D01*
X207742914Y-70929523D02*
X207790533Y-71024761D01*
X201694819Y-101068094D02*
X200694819Y-101068094D01*
X200694819Y-101068094D02*
X200694819Y-100829999D01*
X200694819Y-100829999D02*
X200742438Y-100687142D01*
X200742438Y-100687142D02*
X200837676Y-100591904D01*
X200837676Y-100591904D02*
X200932914Y-100544285D01*
X200932914Y-100544285D02*
X201123390Y-100496666D01*
X201123390Y-100496666D02*
X201266247Y-100496666D01*
X201266247Y-100496666D02*
X201456723Y-100544285D01*
X201456723Y-100544285D02*
X201551961Y-100591904D01*
X201551961Y-100591904D02*
X201647200Y-100687142D01*
X201647200Y-100687142D02*
X201694819Y-100829999D01*
X201694819Y-100829999D02*
X201694819Y-101068094D01*
X200790057Y-100115713D02*
X200742438Y-100068094D01*
X200742438Y-100068094D02*
X200694819Y-99972856D01*
X200694819Y-99972856D02*
X200694819Y-99734761D01*
X200694819Y-99734761D02*
X200742438Y-99639523D01*
X200742438Y-99639523D02*
X200790057Y-99591904D01*
X200790057Y-99591904D02*
X200885295Y-99544285D01*
X200885295Y-99544285D02*
X200980533Y-99544285D01*
X200980533Y-99544285D02*
X201123390Y-99591904D01*
X201123390Y-99591904D02*
X201694819Y-100163332D01*
X201694819Y-100163332D02*
X201694819Y-99544285D01*
X171910476Y-58664819D02*
X171910476Y-57664819D01*
X171910476Y-57664819D02*
X172243809Y-58379104D01*
X172243809Y-58379104D02*
X172577142Y-57664819D01*
X172577142Y-57664819D02*
X172577142Y-58664819D01*
X173577142Y-58664819D02*
X173005714Y-58664819D01*
X173291428Y-58664819D02*
X173291428Y-57664819D01*
X173291428Y-57664819D02*
X173196190Y-57807676D01*
X173196190Y-57807676D02*
X173100952Y-57902914D01*
X173100952Y-57902914D02*
X173005714Y-57950533D01*
X196614819Y-106148094D02*
X195614819Y-106148094D01*
X195614819Y-106148094D02*
X195614819Y-105909999D01*
X195614819Y-105909999D02*
X195662438Y-105767142D01*
X195662438Y-105767142D02*
X195757676Y-105671904D01*
X195757676Y-105671904D02*
X195852914Y-105624285D01*
X195852914Y-105624285D02*
X196043390Y-105576666D01*
X196043390Y-105576666D02*
X196186247Y-105576666D01*
X196186247Y-105576666D02*
X196376723Y-105624285D01*
X196376723Y-105624285D02*
X196471961Y-105671904D01*
X196471961Y-105671904D02*
X196567200Y-105767142D01*
X196567200Y-105767142D02*
X196614819Y-105909999D01*
X196614819Y-105909999D02*
X196614819Y-106148094D01*
X196614819Y-104624285D02*
X196614819Y-105195713D01*
X196614819Y-104909999D02*
X195614819Y-104909999D01*
X195614819Y-104909999D02*
X195757676Y-105005237D01*
X195757676Y-105005237D02*
X195852914Y-105100475D01*
X195852914Y-105100475D02*
X195900533Y-105195713D01*
X190333333Y-96594819D02*
X190000000Y-96118628D01*
X189761905Y-96594819D02*
X189761905Y-95594819D01*
X189761905Y-95594819D02*
X190142857Y-95594819D01*
X190142857Y-95594819D02*
X190238095Y-95642438D01*
X190238095Y-95642438D02*
X190285714Y-95690057D01*
X190285714Y-95690057D02*
X190333333Y-95785295D01*
X190333333Y-95785295D02*
X190333333Y-95928152D01*
X190333333Y-95928152D02*
X190285714Y-96023390D01*
X190285714Y-96023390D02*
X190238095Y-96071009D01*
X190238095Y-96071009D02*
X190142857Y-96118628D01*
X190142857Y-96118628D02*
X189761905Y-96118628D01*
X190714286Y-95690057D02*
X190761905Y-95642438D01*
X190761905Y-95642438D02*
X190857143Y-95594819D01*
X190857143Y-95594819D02*
X191095238Y-95594819D01*
X191095238Y-95594819D02*
X191190476Y-95642438D01*
X191190476Y-95642438D02*
X191238095Y-95690057D01*
X191238095Y-95690057D02*
X191285714Y-95785295D01*
X191285714Y-95785295D02*
X191285714Y-95880533D01*
X191285714Y-95880533D02*
X191238095Y-96023390D01*
X191238095Y-96023390D02*
X190666667Y-96594819D01*
X190666667Y-96594819D02*
X191285714Y-96594819D01*
X185253333Y-101674819D02*
X184920000Y-101198628D01*
X184681905Y-101674819D02*
X184681905Y-100674819D01*
X184681905Y-100674819D02*
X185062857Y-100674819D01*
X185062857Y-100674819D02*
X185158095Y-100722438D01*
X185158095Y-100722438D02*
X185205714Y-100770057D01*
X185205714Y-100770057D02*
X185253333Y-100865295D01*
X185253333Y-100865295D02*
X185253333Y-101008152D01*
X185253333Y-101008152D02*
X185205714Y-101103390D01*
X185205714Y-101103390D02*
X185158095Y-101151009D01*
X185158095Y-101151009D02*
X185062857Y-101198628D01*
X185062857Y-101198628D02*
X184681905Y-101198628D01*
X186205714Y-101674819D02*
X185634286Y-101674819D01*
X185920000Y-101674819D02*
X185920000Y-100674819D01*
X185920000Y-100674819D02*
X185824762Y-100817676D01*
X185824762Y-100817676D02*
X185729524Y-100912914D01*
X185729524Y-100912914D02*
X185634286Y-100960533D01*
D11*
%TO.C,U2*%
X176255000Y-43220000D02*
X187324000Y-43220000D01*
X176255000Y-43220000D02*
X204765000Y-43220000D01*
X176255000Y-94170000D02*
X176255000Y-43220000D01*
X176255000Y-94170000D02*
X176255000Y-43220000D01*
X176255000Y-94170000D02*
X181625000Y-94170000D01*
X181625000Y-94170000D02*
X199315000Y-94170000D01*
X187324000Y-43220000D02*
X194035000Y-43220000D01*
X194035000Y-43220000D02*
X204765000Y-43220000D01*
X199315000Y-94170000D02*
X204765000Y-94170000D01*
X204765000Y-43220000D02*
X204765000Y-94170000D01*
X204765000Y-43220000D02*
X204765000Y-94170000D01*
X204765000Y-94170000D02*
X176255000Y-94170000D01*
D12*
X175785000Y-53180000D02*
G75*
G03*
X175785000Y-53180000I-100000J0D01*
G01*
D13*
%TO.C,J3*%
X212090000Y-62290000D02*
X219770000Y-62290000D01*
X212090000Y-62290000D02*
X212090000Y-59630000D01*
X219770000Y-62290000D02*
X219770000Y-59630000D01*
X209490000Y-60960000D02*
X209490000Y-59630000D01*
X209490000Y-59630000D02*
X210820000Y-59630000D01*
X212090000Y-59630000D02*
X219770000Y-59630000D01*
%TO.C,J2*%
X228780000Y-48740000D02*
X228780000Y-57940000D01*
X219780000Y-48740000D02*
X228780000Y-48740000D01*
X214180000Y-48740000D02*
X216180000Y-48740000D01*
X214180000Y-51540000D02*
X214180000Y-48740000D01*
X228780000Y-57940000D02*
X214180000Y-57940000D01*
X214180000Y-57940000D02*
X214180000Y-55140000D01*
X215680000Y-58180000D02*
X213940000Y-58180000D01*
X213940000Y-58180000D02*
X213940000Y-56440000D01*
%TO.C,J1*%
X212090000Y-72450000D02*
X219770000Y-72450000D01*
X212090000Y-72450000D02*
X212090000Y-69790000D01*
X219770000Y-72450000D02*
X219770000Y-69790000D01*
X209490000Y-71120000D02*
X209490000Y-69790000D01*
X209490000Y-69790000D02*
X210820000Y-69790000D01*
X212090000Y-69790000D02*
X219770000Y-69790000D01*
%TO.C,D2*%
X206130000Y-98620000D02*
X204410000Y-98620000D01*
X204410000Y-98620000D02*
X204410000Y-102040000D01*
X204410000Y-99060000D02*
X204410000Y-99060000D01*
X204410000Y-99060000D02*
X204280000Y-99060000D01*
X204280000Y-99060000D02*
X204410000Y-99060000D01*
X204280000Y-99060000D02*
X204280000Y-99060000D01*
X207530000Y-99370000D02*
X206130000Y-99370000D01*
X206130000Y-99370000D02*
X206130000Y-101290000D01*
X207530000Y-101290000D02*
X207530000Y-99370000D01*
X206130000Y-101290000D02*
X207530000Y-101290000D01*
X204410000Y-101600000D02*
X204410000Y-101600000D01*
X204410000Y-101600000D02*
X204280000Y-101600000D01*
X204280000Y-101600000D02*
X204410000Y-101600000D01*
X204280000Y-101600000D02*
X204280000Y-101600000D01*
X204410000Y-101800000D02*
X206130000Y-101800000D01*
X204410000Y-101920000D02*
X206130000Y-101920000D01*
X206130000Y-102040000D02*
X206130000Y-98620000D01*
X204410000Y-102040000D02*
X206130000Y-102040000D01*
%TO.C,M1*%
X174050000Y-57210000D02*
X172720000Y-57210000D01*
X174050000Y-55880000D02*
X174050000Y-57210000D01*
X174050000Y-54610000D02*
X174050000Y-49470000D01*
X174050000Y-54610000D02*
X171390000Y-54610000D01*
X174050000Y-49470000D02*
X171390000Y-49470000D01*
X171390000Y-54610000D02*
X171390000Y-49470000D01*
%TO.C,D1*%
X201050000Y-103700000D02*
X199330000Y-103700000D01*
X199330000Y-103700000D02*
X199330000Y-107120000D01*
X199330000Y-104140000D02*
X199330000Y-104140000D01*
X199330000Y-104140000D02*
X199200000Y-104140000D01*
X199200000Y-104140000D02*
X199330000Y-104140000D01*
X199200000Y-104140000D02*
X199200000Y-104140000D01*
X202450000Y-104450000D02*
X201050000Y-104450000D01*
X201050000Y-104450000D02*
X201050000Y-106370000D01*
X202450000Y-106370000D02*
X202450000Y-104450000D01*
X201050000Y-106370000D02*
X202450000Y-106370000D01*
X199330000Y-106680000D02*
X199330000Y-106680000D01*
X199330000Y-106680000D02*
X199200000Y-106680000D01*
X199200000Y-106680000D02*
X199330000Y-106680000D01*
X199200000Y-106680000D02*
X199200000Y-106680000D01*
X199330000Y-106880000D02*
X201050000Y-106880000D01*
X199330000Y-107000000D02*
X201050000Y-107000000D01*
X201050000Y-107120000D02*
X201050000Y-103700000D01*
X199330000Y-107120000D02*
X201050000Y-107120000D01*
%TO.C,R2*%
X195570000Y-100980000D02*
X195570000Y-100500000D01*
X195570000Y-97140000D02*
X195570000Y-97620000D01*
X185430000Y-100980000D02*
X195570000Y-100980000D01*
X185430000Y-100500000D02*
X185430000Y-100980000D01*
X185430000Y-97620000D02*
X185430000Y-97140000D01*
X185430000Y-97140000D02*
X195570000Y-97140000D01*
%TO.C,R1*%
X190490000Y-106060000D02*
X190490000Y-105580000D01*
X190490000Y-102220000D02*
X190490000Y-102700000D01*
X180350000Y-106060000D02*
X190490000Y-106060000D01*
X180350000Y-105580000D02*
X180350000Y-106060000D01*
X180350000Y-102700000D02*
X180350000Y-102220000D01*
X180350000Y-102220000D02*
X190490000Y-102220000D01*
%TD*%
M02*
