%TF.GenerationSoftware,KiCad,Pcbnew,7.0.8*%
%TF.CreationDate,2023-11-27T10:02:50-05:00*%
%TF.ProjectId,Esquema KiCad Proyecto,45737175-656d-4612-904b-694361642050,rev?*%
%TF.SameCoordinates,Original*%
%TF.FileFunction,Soldermask,Bot*%
%TF.FilePolarity,Negative*%
%FSLAX46Y46*%
G04 Gerber Fmt 4.6, Leading zero omitted, Abs format (unit mm)*
G04 Created by KiCad (PCBNEW 7.0.8) date 2023-11-27 10:02:50*
%MOMM*%
%LPD*%
G01*
G04 APERTURE LIST*
G04 Aperture macros list*
%AMRoundRect*
0 Rectangle with rounded corners*
0 $1 Rounding radius*
0 $2 $3 $4 $5 $6 $7 $8 $9 X,Y pos of 4 corners*
0 Add a 4 corners polygon primitive as box body*
4,1,4,$2,$3,$4,$5,$6,$7,$8,$9,$2,$3,0*
0 Add four circle primitives for the rounded corners*
1,1,$1+$1,$2,$3*
1,1,$1+$1,$4,$5*
1,1,$1+$1,$6,$7*
1,1,$1+$1,$8,$9*
0 Add four rect primitives between the rounded corners*
20,1,$1+$1,$2,$3,$4,$5,0*
20,1,$1+$1,$4,$5,$6,$7,0*
20,1,$1+$1,$6,$7,$8,$9,0*
20,1,$1+$1,$8,$9,$2,$3,0*%
G04 Aperture macros list end*
%ADD10C,3.000000*%
%ADD11RoundRect,0.102000X-1.000000X-1.000000X1.000000X-1.000000X1.000000X1.000000X-1.000000X1.000000X0*%
%ADD12C,2.204000*%
%ADD13R,1.700000X1.700000*%
%ADD14O,1.700000X1.700000*%
%ADD15C,2.600000*%
%ADD16R,2.600000X2.600000*%
%ADD17C,1.800000*%
%ADD18R,1.800000X1.800000*%
%ADD19O,2.400000X2.400000*%
%ADD20C,2.400000*%
G04 APERTURE END LIST*
D10*
%TO.C,U2*%
X178255000Y-45220000D03*
X178255000Y-92170000D03*
X202765000Y-45220000D03*
X202765000Y-92170000D03*
D11*
X177835000Y-53180000D03*
D12*
X177835000Y-55720000D03*
X177835000Y-58260000D03*
X177835000Y-60800000D03*
X177835000Y-63340000D03*
X177835000Y-65880000D03*
X177835000Y-68420000D03*
X177835000Y-70960000D03*
X177835000Y-73500000D03*
X177835000Y-76040000D03*
X177835000Y-78580000D03*
X177835000Y-81120000D03*
X177835000Y-83660000D03*
X177835000Y-86200000D03*
X177835000Y-88740000D03*
X203235000Y-88740000D03*
X203235000Y-86200000D03*
X203235000Y-83660000D03*
X203235000Y-81120000D03*
X203235000Y-78580000D03*
X203235000Y-76040000D03*
X203235000Y-73500000D03*
X203235000Y-70960000D03*
X203235000Y-68420000D03*
X203235000Y-65880000D03*
X203235000Y-63340000D03*
X203235000Y-60800000D03*
X203235000Y-58260000D03*
X203235000Y-55720000D03*
X203235000Y-53180000D03*
%TD*%
D13*
%TO.C,J3*%
X210820000Y-60960000D03*
D14*
X213360000Y-60960000D03*
X215900000Y-60960000D03*
X218440000Y-60960000D03*
%TD*%
D15*
%TO.C,J2*%
X217980000Y-48640000D03*
X220980000Y-53340000D03*
D16*
X214980000Y-53340000D03*
%TD*%
D13*
%TO.C,J1*%
X210820000Y-71120000D03*
D14*
X213360000Y-71120000D03*
X215900000Y-71120000D03*
X218440000Y-71120000D03*
%TD*%
D17*
%TO.C,D2*%
X203200000Y-99060000D03*
D18*
X203200000Y-101600000D03*
%TD*%
D13*
%TO.C,M1*%
X172720000Y-55880000D03*
D14*
X172720000Y-53340000D03*
X172720000Y-50800000D03*
%TD*%
D17*
%TO.C,D1*%
X198120000Y-104140000D03*
D18*
X198120000Y-106680000D03*
%TD*%
D19*
%TO.C,R2*%
X196850000Y-99060000D03*
D20*
X184150000Y-99060000D03*
%TD*%
D19*
%TO.C,R1*%
X191770000Y-104140000D03*
D20*
X179070000Y-104140000D03*
%TD*%
M02*
