M48
; DRILL file {KiCad 7.0.8} date Fri Dec  1 02:06:56 2023
; FORMAT={-:-/ absolute / inch / decimal}
; #@! TF.CreationDate,2023-12-01T02:06:56-05:00
; #@! TF.GenerationSoftware,Kicad,Pcbnew,7.0.8
; #@! TF.FileFunction,Plated,1,2,PTH
FMAT,2
INCH
; #@! TA.AperFunction,Plated,PTH,ComponentDrill
T1C0.0354
; #@! TA.AperFunction,Plated,PTH,ComponentDrill
T2C0.0394
; #@! TA.AperFunction,Plated,PTH,ComponentDrill
T3C0.0402
; #@! TA.AperFunction,Plated,PTH,ComponentDrill
T4C0.0472
; #@! TA.AperFunction,Plated,PTH,ComponentDrill
T5C0.0630
%
G90
G05
T1
X7.8Y-4.1
X7.8Y-4.2
X8.0Y-3.9
X8.0Y-4.0
T2
X6.8Y-2.0
X6.8Y-2.1
X6.8Y-2.2
X8.3Y-2.4
X8.3Y-2.8
X8.4Y-2.4
X8.4Y-2.8
X8.5Y-2.4
X8.5Y-2.8
X8.6Y-2.4
X8.6Y-2.8
T3
X7.0014Y-2.0937
X7.0014Y-2.1937
X7.0014Y-2.2937
X7.0014Y-2.3937
X7.0014Y-2.4937
X7.0014Y-2.5937
X7.0014Y-2.6937
X7.0014Y-2.7937
X7.0014Y-2.8937
X7.0014Y-2.9937
X7.0014Y-3.0937
X7.0014Y-3.1937
X7.0014Y-3.2937
X7.0014Y-3.3937
X7.0014Y-3.4937
X8.0014Y-2.0937
X8.0014Y-2.1937
X8.0014Y-2.2937
X8.0014Y-2.3937
X8.0014Y-2.4937
X8.0014Y-2.5937
X8.0014Y-2.6937
X8.0014Y-2.7937
X8.0014Y-2.8937
X8.0014Y-2.9937
X8.0014Y-3.0937
X8.0014Y-3.1937
X8.0014Y-3.2937
X8.0014Y-3.3937
X8.0014Y-3.4937
T4
X7.05Y-4.1
X7.25Y-3.9
X7.55Y-4.1
X7.75Y-3.9
T5
X8.4638Y-2.1
X8.5819Y-1.915
X8.7Y-2.1
T0
M30
