%TF.GenerationSoftware,KiCad,Pcbnew,7.0.8*%
%TF.CreationDate,2023-11-27T10:02:50-05:00*%
%TF.ProjectId,Esquema KiCad Proyecto,45737175-656d-4612-904b-694361642050,rev?*%
%TF.SameCoordinates,Original*%
%TF.FileFunction,Copper,L2,Bot*%
%TF.FilePolarity,Positive*%
%FSLAX46Y46*%
G04 Gerber Fmt 4.6, Leading zero omitted, Abs format (unit mm)*
G04 Created by KiCad (PCBNEW 7.0.8) date 2023-11-27 10:02:50*
%MOMM*%
%LPD*%
G01*
G04 APERTURE LIST*
%TA.AperFunction,NonConductor*%
%ADD10C,0.200000*%
%TD*%
%TA.AperFunction,ComponentPad*%
%ADD11R,2.000000X2.000000*%
%TD*%
%TA.AperFunction,ComponentPad*%
%ADD12C,2.000000*%
%TD*%
%TA.AperFunction,ComponentPad*%
%ADD13R,1.700000X1.700000*%
%TD*%
%TA.AperFunction,ComponentPad*%
%ADD14O,1.700000X1.700000*%
%TD*%
%TA.AperFunction,ComponentPad*%
%ADD15C,2.600000*%
%TD*%
%TA.AperFunction,ComponentPad*%
%ADD16R,2.600000X2.600000*%
%TD*%
%TA.AperFunction,ComponentPad*%
%ADD17C,1.800000*%
%TD*%
%TA.AperFunction,ComponentPad*%
%ADD18R,1.800000X1.800000*%
%TD*%
%TA.AperFunction,ComponentPad*%
%ADD19O,2.400000X2.400000*%
%TD*%
%TA.AperFunction,ComponentPad*%
%ADD20C,2.400000*%
%TD*%
%TA.AperFunction,Conductor*%
%ADD21C,0.700000*%
%TD*%
%TA.AperFunction,Conductor*%
%ADD22C,1.300000*%
%TD*%
G04 APERTURE END LIST*
D10*
X226060000Y-35560000D02*
X226060000Y-109220000D01*
X226060000Y-35560000D01*
X167640000Y-35560000D02*
X167640000Y-109220000D01*
X167640000Y-35560000D01*
D11*
%TO.P,U2,1,3V3*%
%TO.N,unconnected-(U2-3V3-Pad1)*%
X177835000Y-53180000D03*
D12*
%TO.P,U2,2,GND*%
%TO.N,GND*%
X177835000Y-55720000D03*
%TO.P,U2,3,D15*%
%TO.N,unconnected-(U2-D15-Pad3)*%
X177835000Y-58260000D03*
%TO.P,U2,4,D2*%
%TO.N,Q Led_Rojo*%
X177835000Y-60800000D03*
%TO.P,U2,5,D4*%
%TO.N,Q Led_Verde*%
X177835000Y-63340000D03*
%TO.P,U2,6,RX2*%
%TO.N,unconnected-(U2-RX2-Pad6)*%
X177835000Y-65880000D03*
%TO.P,U2,7,TX2*%
%TO.N,unconnected-(U2-TX2-Pad7)*%
X177835000Y-68420000D03*
%TO.P,U2,8,D5*%
%TO.N,Q PWM*%
X177835000Y-70960000D03*
%TO.P,U2,9,D18*%
%TO.N,unconnected-(U2-D18-Pad9)*%
X177835000Y-73500000D03*
%TO.P,U2,10,D19*%
%TO.N,unconnected-(U2-D19-Pad10)*%
X177835000Y-76040000D03*
%TO.P,U2,11,D21*%
%TO.N,unconnected-(U2-D21-Pad11)*%
X177835000Y-78580000D03*
%TO.P,U2,12,RX0*%
%TO.N,unconnected-(U2-RX0-Pad12)*%
X177835000Y-81120000D03*
%TO.P,U2,13,TX0*%
%TO.N,unconnected-(U2-TX0-Pad13)*%
X177835000Y-83660000D03*
%TO.P,U2,14,D22*%
%TO.N,unconnected-(U2-D22-Pad14)*%
X177835000Y-86200000D03*
%TO.P,U2,15,D23*%
%TO.N,unconnected-(U2-D23-Pad15)*%
X177835000Y-88740000D03*
%TO.P,U2,16,EN*%
%TO.N,unconnected-(U2-EN-Pad16)*%
X203235000Y-88740000D03*
%TO.P,U2,17,VP*%
%TO.N,unconnected-(U2-VP-Pad17)*%
X203235000Y-86200000D03*
%TO.P,U2,18,VN*%
%TO.N,unconnected-(U2-VN-Pad18)*%
X203235000Y-83660000D03*
%TO.P,U2,19,D34*%
%TO.N,unconnected-(U2-D34-Pad19)*%
X203235000Y-81120000D03*
%TO.P,U2,20,D35*%
%TO.N,unconnected-(U2-D35-Pad20)*%
X203235000Y-78580000D03*
%TO.P,U2,21,D32*%
%TO.N,Q TRIGGER 0*%
X203235000Y-76040000D03*
%TO.P,U2,22,D33*%
%TO.N,Q ECHO 0*%
X203235000Y-73500000D03*
%TO.P,U2,23,D25*%
%TO.N,unconnected-(U2-D25-Pad23)*%
X203235000Y-70960000D03*
%TO.P,U2,24,D26*%
%TO.N,unconnected-(U2-D26-Pad24)*%
X203235000Y-68420000D03*
%TO.P,U2,25,D27*%
%TO.N,unconnected-(U2-D27-Pad25)*%
X203235000Y-65880000D03*
%TO.P,U2,26,D14*%
%TO.N,Q TRIGGER 1*%
X203235000Y-63340000D03*
%TO.P,U2,27,D12*%
%TO.N,Q ECHO 1*%
X203235000Y-60800000D03*
%TO.P,U2,28,D13*%
%TO.N,unconnected-(U2-D13-Pad28)*%
X203235000Y-58260000D03*
%TO.P,U2,29,GND*%
%TO.N,GND*%
X203235000Y-55720000D03*
%TO.P,U2,30,VIN*%
%TO.N,+5V*%
X203235000Y-53180000D03*
%TD*%
D13*
%TO.P,J3,1,Pin_1*%
%TO.N,+5V*%
X210820000Y-60960000D03*
D14*
%TO.P,J3,2,Pin_2*%
%TO.N,Q TRIGGER 1*%
X213360000Y-60960000D03*
%TO.P,J3,3,Pin_3*%
%TO.N,Q ECHO 1*%
X215900000Y-60960000D03*
%TO.P,J3,4,Pin_4*%
%TO.N,GND*%
X218440000Y-60960000D03*
%TD*%
D15*
%TO.P,J2,3*%
%TO.N,N/C*%
X217980000Y-48640000D03*
%TO.P,J2,2*%
%TO.N,GND*%
X220980000Y-53340000D03*
D16*
%TO.P,J2,1*%
%TO.N,+5V*%
X214980000Y-53340000D03*
%TD*%
D13*
%TO.P,J1,1,Pin_1*%
%TO.N,+5V*%
X210820000Y-71120000D03*
D14*
%TO.P,J1,2,Pin_2*%
%TO.N,Q TRIGGER 0*%
X213360000Y-71120000D03*
%TO.P,J1,3,Pin_3*%
%TO.N,Q ECHO 0*%
X215900000Y-71120000D03*
%TO.P,J1,4,Pin_4*%
%TO.N,GND*%
X218440000Y-71120000D03*
%TD*%
D17*
%TO.P,D2,2,A*%
%TO.N,Net-(D2-A)*%
X203200000Y-99060000D03*
D18*
%TO.P,D2,1,K*%
%TO.N,GND*%
X203200000Y-101600000D03*
%TD*%
D13*
%TO.P,M1,1,PWM*%
%TO.N,Q PWM*%
X172720000Y-55880000D03*
D14*
%TO.P,M1,2,+*%
%TO.N,+5V*%
X172720000Y-53340000D03*
%TO.P,M1,3,-*%
%TO.N,GND*%
X172720000Y-50800000D03*
%TD*%
D17*
%TO.P,D1,2,A*%
%TO.N,Net-(D1-A)*%
X198120000Y-104140000D03*
D18*
%TO.P,D1,1,K*%
%TO.N,GND*%
X198120000Y-106680000D03*
%TD*%
D19*
%TO.P,R2,2*%
%TO.N,Net-(D2-A)*%
X196850000Y-99060000D03*
D20*
%TO.P,R2,1*%
%TO.N,Q Led_Rojo*%
X184150000Y-99060000D03*
%TD*%
D19*
%TO.P,R1,2*%
%TO.N,Net-(D1-A)*%
X191770000Y-104140000D03*
D20*
%TO.P,R1,1*%
%TO.N,Q Led_Verde*%
X179070000Y-104140000D03*
%TD*%
D21*
%TO.N,Q Led_Rojo*%
X182880000Y-97790000D02*
X184150000Y-99060000D01*
X181480024Y-94520000D02*
X182880000Y-94520000D01*
X182880000Y-94520000D02*
X182880000Y-97790000D01*
X181275000Y-94314976D02*
X181480024Y-94520000D01*
X181480024Y-87330000D02*
X181275000Y-87535024D01*
X182880000Y-87330000D02*
X181480024Y-87330000D01*
X181275000Y-87535024D02*
X181275000Y-94314976D01*
X182880000Y-65845000D02*
X182880000Y-87330000D01*
X177835000Y-60800000D02*
X182880000Y-65845000D01*
D22*
%TO.N,GND*%
X203235000Y-55720000D02*
X203395000Y-55880000D01*
D21*
%TO.N,Q PWM*%
X172720000Y-65845000D02*
X172720000Y-63500000D01*
X177835000Y-70960000D02*
X172720000Y-65845000D01*
X172720000Y-63500000D02*
X172720000Y-55880000D01*
%TO.N,Q ECHO 1*%
X210820000Y-55880000D02*
X215900000Y-60960000D01*
X203235000Y-60800000D02*
X208155000Y-55880000D01*
X208155000Y-55880000D02*
X210820000Y-55880000D01*
D22*
%TO.N,+5V*%
X208155000Y-48260000D02*
X210820000Y-48260000D01*
X203235000Y-53180000D02*
X208155000Y-48260000D01*
X210820000Y-48260000D02*
X214980000Y-52420000D01*
X214980000Y-52420000D02*
X214980000Y-53340000D01*
%TO.N,GND*%
X177446636Y-55720000D02*
X177835000Y-55720000D01*
X172720000Y-50800000D02*
X172720000Y-50993364D01*
%TO.N,+5V*%
X170180000Y-48260000D02*
X198315000Y-48260000D01*
X172720000Y-53340000D02*
X170180000Y-50800000D01*
X170180000Y-50800000D02*
X170180000Y-48260000D01*
X198315000Y-48260000D02*
X200757500Y-50702500D01*
X200757500Y-50702500D02*
X203235000Y-53180000D01*
X199353204Y-49298204D02*
X200757500Y-50702500D01*
D21*
%TO.N,Q TRIGGER 0*%
X213360000Y-71120000D02*
X208440000Y-76040000D01*
X208440000Y-76040000D02*
X203235000Y-76040000D01*
%TO.N,Q ECHO 0*%
X200950000Y-94270000D02*
X200660000Y-93980000D01*
X203200000Y-94270000D02*
X200950000Y-94270000D01*
%TO.N,Q TRIGGER 1*%
X208155000Y-58420000D02*
X203235000Y-63340000D01*
X210820000Y-58420000D02*
X208155000Y-58420000D01*
X213360000Y-60960000D02*
X210820000Y-58420000D01*
%TO.N,Q ECHO 0*%
X205740000Y-92214848D02*
X203684848Y-94270000D01*
X205740000Y-81280000D02*
X205740000Y-92214848D01*
X203684848Y-94270000D02*
X203200000Y-94270000D01*
X215900000Y-71120000D02*
X205740000Y-81280000D01*
X200665000Y-76070000D02*
X203235000Y-73500000D01*
X200665000Y-93985000D02*
X200665000Y-76070000D01*
%TO.N,Q Led_Verde*%
X180340000Y-65845000D02*
X180340000Y-65860000D01*
X177835000Y-63340000D02*
X180340000Y-65845000D01*
%TO.N,Net-(D2-A)*%
X196850000Y-99060000D02*
X203200000Y-99060000D01*
%TO.N,Net-(D1-A)*%
X191770000Y-104140000D02*
X198120000Y-104140000D01*
%TO.N,Q Led_Verde*%
X180355000Y-102855000D02*
X179070000Y-104140000D01*
X180355000Y-65860000D02*
X180355000Y-102855000D01*
D22*
%TO.N,+5V*%
X210820000Y-66040000D02*
X210820000Y-71120000D01*
X210820000Y-60960000D02*
X210820000Y-66040000D01*
%TD*%
%TA.AperFunction,Conductor*%
%TO.N,GND*%
G36*
X224902539Y-35580185D02*
G01*
X224948294Y-35632989D01*
X224959500Y-35684500D01*
X224959500Y-109095500D01*
X224939815Y-109162539D01*
X224887011Y-109208294D01*
X224835500Y-109219500D01*
X168864500Y-109219500D01*
X168797461Y-109199815D01*
X168751706Y-109147011D01*
X168740500Y-109095500D01*
X168740500Y-51992068D01*
X168760185Y-51925029D01*
X168812989Y-51879274D01*
X168882147Y-51869330D01*
X168945703Y-51898355D01*
X168958786Y-51911532D01*
X169009311Y-51970689D01*
X169056939Y-52011367D01*
X169060490Y-52014650D01*
X170121806Y-53075965D01*
X170939528Y-53893687D01*
X170968029Y-53938034D01*
X171032428Y-54110694D01*
X171094451Y-54224279D01*
X171101962Y-54238035D01*
X171111282Y-54255102D01*
X171126134Y-54323374D01*
X171101718Y-54388839D01*
X171098552Y-54392889D01*
X171030305Y-54476587D01*
X170936089Y-54656954D01*
X170880114Y-54852583D01*
X170880113Y-54852586D01*
X170869500Y-54971965D01*
X170869500Y-54971966D01*
X170869501Y-56788032D01*
X170869501Y-56788033D01*
X170880113Y-56907415D01*
X170936089Y-57103045D01*
X170936090Y-57103048D01*
X170936091Y-57103049D01*
X171030302Y-57283407D01*
X171030304Y-57283409D01*
X171158890Y-57441109D01*
X171321467Y-57573672D01*
X171320103Y-57575344D01*
X171358869Y-57621116D01*
X171369500Y-57671351D01*
X171369500Y-63441034D01*
X171369500Y-65726846D01*
X171369500Y-65726847D01*
X171369500Y-65963153D01*
X171371615Y-65975147D01*
X171379307Y-66018776D01*
X171380013Y-66024139D01*
X171384937Y-66080410D01*
X171399553Y-66134960D01*
X171400724Y-66140242D01*
X171410534Y-66195873D01*
X171429850Y-66248944D01*
X171431477Y-66254105D01*
X171446095Y-66308657D01*
X171446097Y-66308663D01*
X171469972Y-66359863D01*
X171472031Y-66364834D01*
X171491353Y-66417920D01*
X171491357Y-66417930D01*
X171519598Y-66466844D01*
X171522097Y-66471644D01*
X171545964Y-66522828D01*
X171545965Y-66522830D01*
X171578357Y-66569090D01*
X171581264Y-66573653D01*
X171609509Y-66622574D01*
X171609511Y-66622576D01*
X171645814Y-66665840D01*
X171649108Y-66670133D01*
X171681506Y-66716403D01*
X171850733Y-66885630D01*
X171850755Y-66885650D01*
X175795735Y-70830631D01*
X175829220Y-70891954D01*
X175831738Y-70927155D01*
X175829390Y-70959995D01*
X175829390Y-70960001D01*
X175849804Y-71245433D01*
X175910628Y-71525037D01*
X176010635Y-71793166D01*
X176147770Y-72044309D01*
X176147771Y-72044310D01*
X176147774Y-72044315D01*
X176231147Y-72155689D01*
X176231148Y-72155690D01*
X176255564Y-72221155D01*
X176240712Y-72289428D01*
X176231148Y-72304310D01*
X176147770Y-72415690D01*
X176010635Y-72666833D01*
X175910628Y-72934962D01*
X175849804Y-73214566D01*
X175829390Y-73499998D01*
X175829390Y-73500001D01*
X175849804Y-73785433D01*
X175910628Y-74065037D01*
X176010635Y-74333166D01*
X176147770Y-74584309D01*
X176147772Y-74584312D01*
X176147774Y-74584315D01*
X176226514Y-74689500D01*
X176231148Y-74695690D01*
X176255564Y-74761155D01*
X176240712Y-74829428D01*
X176231148Y-74844310D01*
X176147770Y-74955690D01*
X176010635Y-75206833D01*
X175910628Y-75474962D01*
X175849804Y-75754566D01*
X175829390Y-76039998D01*
X175829390Y-76040001D01*
X175849804Y-76325433D01*
X175910628Y-76605037D01*
X176010635Y-76873166D01*
X176147770Y-77124309D01*
X176231148Y-77235690D01*
X176255564Y-77301155D01*
X176240712Y-77369428D01*
X176231150Y-77384306D01*
X176211778Y-77410185D01*
X176147770Y-77495690D01*
X176010635Y-77746833D01*
X175910628Y-78014962D01*
X175849804Y-78294566D01*
X175829390Y-78579998D01*
X175829390Y-78580001D01*
X175849804Y-78865433D01*
X175910628Y-79145037D01*
X176010635Y-79413166D01*
X176147770Y-79664309D01*
X176231148Y-79775690D01*
X176255564Y-79841155D01*
X176240712Y-79909428D01*
X176231148Y-79924310D01*
X176147770Y-80035690D01*
X176010635Y-80286833D01*
X175910628Y-80554962D01*
X175849804Y-80834566D01*
X175829390Y-81119998D01*
X175829390Y-81120001D01*
X175849804Y-81405433D01*
X175910628Y-81685037D01*
X175910630Y-81685043D01*
X175910631Y-81685046D01*
X175987357Y-81890756D01*
X176010635Y-81953166D01*
X176147770Y-82204309D01*
X176231148Y-82315690D01*
X176255564Y-82381155D01*
X176240712Y-82449428D01*
X176231148Y-82464310D01*
X176147770Y-82575690D01*
X176010635Y-82826833D01*
X175910628Y-83094962D01*
X175849804Y-83374566D01*
X175829390Y-83659998D01*
X175829390Y-83660001D01*
X175849804Y-83945433D01*
X175910628Y-84225037D01*
X176010635Y-84493166D01*
X176147770Y-84744309D01*
X176231148Y-84855690D01*
X176255564Y-84921155D01*
X176240712Y-84989428D01*
X176231148Y-85004310D01*
X176147770Y-85115690D01*
X176010635Y-85366833D01*
X175910628Y-85634962D01*
X175849804Y-85914566D01*
X175829390Y-86199998D01*
X175829390Y-86200001D01*
X175849804Y-86485433D01*
X175910628Y-86765037D01*
X176010635Y-87033166D01*
X176147770Y-87284309D01*
X176147772Y-87284312D01*
X176147774Y-87284315D01*
X176181974Y-87330001D01*
X176231148Y-87395690D01*
X176255564Y-87461155D01*
X176240712Y-87529428D01*
X176231148Y-87544310D01*
X176147770Y-87655690D01*
X176010635Y-87906833D01*
X175910628Y-88174962D01*
X175849804Y-88454566D01*
X175829390Y-88739998D01*
X175829390Y-88740001D01*
X175849804Y-89025433D01*
X175910628Y-89305037D01*
X176010635Y-89573166D01*
X176147770Y-89824309D01*
X176147775Y-89824317D01*
X176319254Y-90053387D01*
X176319270Y-90053405D01*
X176521594Y-90255729D01*
X176521612Y-90255745D01*
X176750682Y-90427224D01*
X176750690Y-90427229D01*
X177001833Y-90564364D01*
X177001832Y-90564364D01*
X177001836Y-90564365D01*
X177001839Y-90564367D01*
X177109316Y-90604454D01*
X177165248Y-90646325D01*
X177189665Y-90711789D01*
X177174813Y-90780062D01*
X177143295Y-90817581D01*
X177061015Y-90883197D01*
X176882567Y-91075520D01*
X176734768Y-91292302D01*
X176734767Y-91292303D01*
X176620938Y-91528673D01*
X176543606Y-91779376D01*
X176543605Y-91779381D01*
X176543604Y-91779385D01*
X176528853Y-91877247D01*
X176504500Y-92038812D01*
X176504500Y-92301187D01*
X176517681Y-92388633D01*
X176543604Y-92560615D01*
X176543605Y-92560617D01*
X176543606Y-92560623D01*
X176620938Y-92811326D01*
X176734767Y-93047696D01*
X176734768Y-93047697D01*
X176734770Y-93047700D01*
X176734772Y-93047704D01*
X176761056Y-93086255D01*
X176882567Y-93264479D01*
X177061014Y-93456801D01*
X177061018Y-93456804D01*
X177061019Y-93456805D01*
X177266143Y-93620386D01*
X177493357Y-93751568D01*
X177737584Y-93847420D01*
X177993370Y-93905802D01*
X177993376Y-93905802D01*
X177993379Y-93905803D01*
X178189500Y-93920500D01*
X178189506Y-93920500D01*
X178320500Y-93920500D01*
X178516620Y-93905803D01*
X178516622Y-93905802D01*
X178516630Y-93905802D01*
X178772416Y-93847420D01*
X178835197Y-93822779D01*
X178904794Y-93816611D01*
X178966678Y-93849049D01*
X179001201Y-93909794D01*
X179004500Y-93938208D01*
X179004500Y-101822932D01*
X178984815Y-101889971D01*
X178932011Y-101935726D01*
X178888610Y-101946666D01*
X178782178Y-101953642D01*
X178782166Y-101953643D01*
X178782161Y-101953644D01*
X178782153Y-101953645D01*
X178782150Y-101953646D01*
X178499254Y-102009917D01*
X178499239Y-102009921D01*
X178226094Y-102102642D01*
X177967393Y-102230219D01*
X177967386Y-102230223D01*
X177727547Y-102390478D01*
X177510672Y-102580672D01*
X177320478Y-102797547D01*
X177160223Y-103037386D01*
X177160219Y-103037393D01*
X177032642Y-103296094D01*
X176939921Y-103569239D01*
X176939917Y-103569254D01*
X176883646Y-103852150D01*
X176883644Y-103852162D01*
X176864778Y-104140000D01*
X176883644Y-104427837D01*
X176883646Y-104427849D01*
X176939917Y-104710745D01*
X176939921Y-104710760D01*
X177032642Y-104983905D01*
X177160219Y-105242606D01*
X177160223Y-105242613D01*
X177320478Y-105482452D01*
X177510672Y-105699327D01*
X177727547Y-105889521D01*
X177967386Y-106049776D01*
X177967389Y-106049778D01*
X178226098Y-106177359D01*
X178499247Y-106270081D01*
X178782161Y-106326356D01*
X179070000Y-106345222D01*
X179357839Y-106326356D01*
X179640753Y-106270081D01*
X179913902Y-106177359D01*
X180172611Y-106049778D01*
X180412454Y-105889520D01*
X180629327Y-105699327D01*
X180819520Y-105482454D01*
X180979778Y-105242611D01*
X181107359Y-104983902D01*
X181200081Y-104710753D01*
X181256356Y-104427839D01*
X181275222Y-104140000D01*
X189564778Y-104140000D01*
X189583644Y-104427837D01*
X189583646Y-104427849D01*
X189639917Y-104710745D01*
X189639921Y-104710760D01*
X189732642Y-104983905D01*
X189860219Y-105242606D01*
X189860223Y-105242613D01*
X190020478Y-105482452D01*
X190210672Y-105699327D01*
X190427547Y-105889521D01*
X190667386Y-106049776D01*
X190667389Y-106049778D01*
X190926098Y-106177359D01*
X191199247Y-106270081D01*
X191482161Y-106326356D01*
X191770000Y-106345222D01*
X192057839Y-106326356D01*
X192340753Y-106270081D01*
X192613902Y-106177359D01*
X192872611Y-106049778D01*
X193112454Y-105889520D01*
X193329327Y-105699327D01*
X193475420Y-105532741D01*
X193534422Y-105495317D01*
X193568648Y-105490500D01*
X196731425Y-105490500D01*
X196798464Y-105510185D01*
X196819107Y-105526820D01*
X196872247Y-105579961D01*
X196872253Y-105579966D01*
X196872258Y-105579971D01*
X197089887Y-105742887D01*
X197089891Y-105742889D01*
X197089892Y-105742890D01*
X197328481Y-105873169D01*
X197328480Y-105873169D01*
X197328484Y-105873170D01*
X197328487Y-105873172D01*
X197583199Y-105968175D01*
X197848840Y-106025961D01*
X198100605Y-106043967D01*
X198119999Y-106045355D01*
X198120000Y-106045355D01*
X198120001Y-106045355D01*
X198138100Y-106044060D01*
X198391160Y-106025961D01*
X198656801Y-105968175D01*
X198911513Y-105873172D01*
X198911517Y-105873169D01*
X198911519Y-105873169D01*
X199030813Y-105808029D01*
X199150113Y-105742887D01*
X199367742Y-105579971D01*
X199559971Y-105387742D01*
X199722887Y-105170113D01*
X199853172Y-104931513D01*
X199948175Y-104676801D01*
X200005961Y-104411160D01*
X200025355Y-104140000D01*
X200025354Y-104139992D01*
X200022765Y-104103799D01*
X200005961Y-103868840D01*
X199948175Y-103603199D01*
X199853172Y-103348487D01*
X199853170Y-103348484D01*
X199853169Y-103348480D01*
X199722890Y-103109892D01*
X199722889Y-103109891D01*
X199722887Y-103109887D01*
X199559971Y-102892258D01*
X199559966Y-102892253D01*
X199559961Y-102892247D01*
X199367752Y-102700038D01*
X199367746Y-102700033D01*
X199367742Y-102700029D01*
X199150113Y-102537113D01*
X199150108Y-102537110D01*
X199150107Y-102537109D01*
X198911518Y-102406830D01*
X198911519Y-102406830D01*
X198861920Y-102388330D01*
X198656801Y-102311825D01*
X198656794Y-102311823D01*
X198656793Y-102311823D01*
X198391167Y-102254040D01*
X198391160Y-102254039D01*
X198120001Y-102234645D01*
X198119999Y-102234645D01*
X197848839Y-102254039D01*
X197848832Y-102254040D01*
X197583206Y-102311823D01*
X197583202Y-102311824D01*
X197583199Y-102311825D01*
X197455843Y-102359326D01*
X197328480Y-102406830D01*
X197089892Y-102537109D01*
X197089891Y-102537110D01*
X196872259Y-102700028D01*
X196872247Y-102700038D01*
X196819107Y-102753180D01*
X196757784Y-102786666D01*
X196731425Y-102789500D01*
X193568648Y-102789500D01*
X193501609Y-102769815D01*
X193475420Y-102747259D01*
X193329327Y-102580672D01*
X193112452Y-102390478D01*
X192872613Y-102230223D01*
X192872606Y-102230219D01*
X192613905Y-102102642D01*
X192340760Y-102009921D01*
X192340754Y-102009919D01*
X192340753Y-102009919D01*
X192340751Y-102009918D01*
X192340745Y-102009917D01*
X192057849Y-101953646D01*
X192057839Y-101953644D01*
X191770000Y-101934778D01*
X191482161Y-101953644D01*
X191482155Y-101953645D01*
X191482150Y-101953646D01*
X191199254Y-102009917D01*
X191199239Y-102009921D01*
X190926094Y-102102642D01*
X190667393Y-102230219D01*
X190667386Y-102230223D01*
X190427547Y-102390478D01*
X190210672Y-102580672D01*
X190020478Y-102797547D01*
X189860223Y-103037386D01*
X189860219Y-103037393D01*
X189732642Y-103296094D01*
X189639921Y-103569239D01*
X189639917Y-103569254D01*
X189583646Y-103852150D01*
X189583644Y-103852162D01*
X189564778Y-104140000D01*
X181275222Y-104140000D01*
X181260729Y-103918900D01*
X181275986Y-103850721D01*
X181296778Y-103823116D01*
X181332327Y-103787567D01*
X181351644Y-103768253D01*
X181393492Y-103726404D01*
X181393495Y-103726401D01*
X181425905Y-103680112D01*
X181429185Y-103675840D01*
X181438484Y-103664756D01*
X181465490Y-103632574D01*
X181493734Y-103583652D01*
X181496624Y-103579114D01*
X181529035Y-103532829D01*
X181552904Y-103481639D01*
X181555399Y-103476848D01*
X181558209Y-103471980D01*
X181583644Y-103427927D01*
X181602966Y-103374837D01*
X181605019Y-103369878D01*
X181628903Y-103318663D01*
X181643524Y-103264094D01*
X181645149Y-103258941D01*
X181664463Y-103205876D01*
X181664462Y-103205876D01*
X181664465Y-103205871D01*
X181674276Y-103150225D01*
X181675436Y-103144992D01*
X181690063Y-103090408D01*
X181694985Y-103034139D01*
X181695688Y-103028793D01*
X181705500Y-102973154D01*
X181705500Y-102736847D01*
X181705500Y-99197130D01*
X181725185Y-99130091D01*
X181777989Y-99084336D01*
X181847147Y-99074392D01*
X181910703Y-99103417D01*
X181948477Y-99162195D01*
X181953234Y-99189014D01*
X181962551Y-99331160D01*
X181963644Y-99347837D01*
X181963646Y-99347849D01*
X182019917Y-99630745D01*
X182019921Y-99630760D01*
X182112642Y-99903905D01*
X182240219Y-100162606D01*
X182240223Y-100162613D01*
X182400478Y-100402452D01*
X182590672Y-100619327D01*
X182807547Y-100809521D01*
X183047386Y-100969776D01*
X183047389Y-100969778D01*
X183306098Y-101097359D01*
X183579247Y-101190081D01*
X183862161Y-101246356D01*
X184150000Y-101265222D01*
X184437839Y-101246356D01*
X184720753Y-101190081D01*
X184993902Y-101097359D01*
X185252611Y-100969778D01*
X185492454Y-100809520D01*
X185709327Y-100619327D01*
X185899520Y-100402454D01*
X186059778Y-100162611D01*
X186187359Y-99903902D01*
X186280081Y-99630753D01*
X186336356Y-99347839D01*
X186355222Y-99060000D01*
X194644778Y-99060000D01*
X194663644Y-99347837D01*
X194663646Y-99347849D01*
X194719917Y-99630745D01*
X194719921Y-99630760D01*
X194812642Y-99903905D01*
X194940219Y-100162606D01*
X194940223Y-100162613D01*
X195100478Y-100402452D01*
X195290672Y-100619327D01*
X195507547Y-100809521D01*
X195747386Y-100969776D01*
X195747389Y-100969778D01*
X196006098Y-101097359D01*
X196279247Y-101190081D01*
X196562161Y-101246356D01*
X196850000Y-101265222D01*
X197137839Y-101246356D01*
X197420753Y-101190081D01*
X197693902Y-101097359D01*
X197952611Y-100969778D01*
X198192454Y-100809520D01*
X198409327Y-100619327D01*
X198555420Y-100452741D01*
X198614422Y-100415317D01*
X198648648Y-100410500D01*
X201811425Y-100410500D01*
X201878464Y-100430185D01*
X201899107Y-100446820D01*
X201952247Y-100499961D01*
X201952253Y-100499966D01*
X201952258Y-100499971D01*
X202169887Y-100662887D01*
X202169891Y-100662889D01*
X202169892Y-100662890D01*
X202408481Y-100793169D01*
X202408480Y-100793169D01*
X202408484Y-100793170D01*
X202408487Y-100793172D01*
X202663199Y-100888175D01*
X202928840Y-100945961D01*
X203180605Y-100963967D01*
X203199999Y-100965355D01*
X203200000Y-100965355D01*
X203200001Y-100965355D01*
X203218100Y-100964060D01*
X203471160Y-100945961D01*
X203736801Y-100888175D01*
X203991513Y-100793172D01*
X203991517Y-100793169D01*
X203991519Y-100793169D01*
X204110813Y-100728029D01*
X204230113Y-100662887D01*
X204447742Y-100499971D01*
X204639971Y-100307742D01*
X204802887Y-100090113D01*
X204933172Y-99851513D01*
X205028175Y-99596801D01*
X205085961Y-99331160D01*
X205105355Y-99060000D01*
X205085961Y-98788840D01*
X205028175Y-98523199D01*
X204933172Y-98268487D01*
X204933170Y-98268484D01*
X204933169Y-98268480D01*
X204802890Y-98029892D01*
X204802889Y-98029891D01*
X204802887Y-98029887D01*
X204639971Y-97812258D01*
X204639966Y-97812253D01*
X204639961Y-97812247D01*
X204447752Y-97620038D01*
X204447746Y-97620033D01*
X204447742Y-97620029D01*
X204230113Y-97457113D01*
X204230108Y-97457110D01*
X204230107Y-97457109D01*
X203991518Y-97326830D01*
X203991519Y-97326830D01*
X203941920Y-97308330D01*
X203736801Y-97231825D01*
X203736794Y-97231823D01*
X203736793Y-97231823D01*
X203471167Y-97174040D01*
X203471160Y-97174039D01*
X203200001Y-97154645D01*
X203199999Y-97154645D01*
X202928839Y-97174039D01*
X202928832Y-97174040D01*
X202663206Y-97231823D01*
X202663202Y-97231824D01*
X202663199Y-97231825D01*
X202535843Y-97279326D01*
X202408480Y-97326830D01*
X202169892Y-97457109D01*
X202169891Y-97457110D01*
X201952259Y-97620028D01*
X201952247Y-97620038D01*
X201899107Y-97673180D01*
X201837784Y-97706666D01*
X201811425Y-97709500D01*
X198648648Y-97709500D01*
X198581609Y-97689815D01*
X198555420Y-97667259D01*
X198409327Y-97500672D01*
X198192452Y-97310478D01*
X197952613Y-97150223D01*
X197952606Y-97150219D01*
X197693905Y-97022642D01*
X197420760Y-96929921D01*
X197420754Y-96929919D01*
X197420753Y-96929919D01*
X197420751Y-96929918D01*
X197420745Y-96929917D01*
X197137849Y-96873646D01*
X197137839Y-96873644D01*
X196850000Y-96854778D01*
X196562161Y-96873644D01*
X196562155Y-96873645D01*
X196562150Y-96873646D01*
X196279254Y-96929917D01*
X196279239Y-96929921D01*
X196006094Y-97022642D01*
X195747393Y-97150219D01*
X195747386Y-97150223D01*
X195507547Y-97310478D01*
X195290672Y-97500672D01*
X195100478Y-97717547D01*
X194940223Y-97957386D01*
X194940219Y-97957393D01*
X194812642Y-98216094D01*
X194719921Y-98489239D01*
X194719917Y-98489254D01*
X194663646Y-98772150D01*
X194663644Y-98772162D01*
X194644778Y-99060000D01*
X186355222Y-99060000D01*
X186336356Y-98772161D01*
X186280081Y-98489247D01*
X186187359Y-98216098D01*
X186059778Y-97957389D01*
X185899520Y-97717546D01*
X185892464Y-97709500D01*
X185709327Y-97500672D01*
X185492452Y-97310478D01*
X185252613Y-97150223D01*
X185252606Y-97150219D01*
X184993905Y-97022642D01*
X184720760Y-96929921D01*
X184720754Y-96929919D01*
X184720753Y-96929919D01*
X184720751Y-96929918D01*
X184720745Y-96929917D01*
X184437849Y-96873646D01*
X184437839Y-96873644D01*
X184437832Y-96873643D01*
X184437822Y-96873642D01*
X184346389Y-96867649D01*
X184280781Y-96843622D01*
X184238578Y-96787938D01*
X184230500Y-96743915D01*
X184230500Y-94581673D01*
X184230736Y-94576267D01*
X184232779Y-94552923D01*
X184235659Y-94520000D01*
X184227542Y-94427219D01*
X184216832Y-94304807D01*
X184230599Y-94236307D01*
X184279214Y-94186124D01*
X184340360Y-94170000D01*
X199218120Y-94170000D01*
X199285159Y-94189685D01*
X199330914Y-94242489D01*
X199340236Y-94272468D01*
X199350534Y-94330872D01*
X199383724Y-94422061D01*
X199385350Y-94427219D01*
X199391095Y-94448656D01*
X199391102Y-94448676D01*
X199400477Y-94468781D01*
X199402548Y-94473779D01*
X199431354Y-94552923D01*
X199431357Y-94552930D01*
X199473470Y-94625871D01*
X199475968Y-94630670D01*
X199490963Y-94662827D01*
X199490966Y-94662831D01*
X199511316Y-94691893D01*
X199514224Y-94696458D01*
X199549510Y-94757576D01*
X199573432Y-94786084D01*
X199594878Y-94811643D01*
X199598156Y-94815915D01*
X199626505Y-94856401D01*
X199626508Y-94856404D01*
X199795734Y-95025631D01*
X199795755Y-95025650D01*
X199909853Y-95139748D01*
X199909882Y-95139779D01*
X200078595Y-95308492D01*
X200078598Y-95308494D01*
X200078599Y-95308495D01*
X200124887Y-95340906D01*
X200129150Y-95344177D01*
X200172427Y-95380491D01*
X200221343Y-95408732D01*
X200221346Y-95408734D01*
X200225905Y-95411639D01*
X200272171Y-95444035D01*
X200272172Y-95444035D01*
X200272173Y-95444036D01*
X200272174Y-95444037D01*
X200296332Y-95455301D01*
X200323367Y-95467908D01*
X200328146Y-95470396D01*
X200377074Y-95498645D01*
X200430141Y-95517959D01*
X200435141Y-95520029D01*
X200486337Y-95543903D01*
X200540908Y-95558524D01*
X200546033Y-95560140D01*
X200599129Y-95579466D01*
X200654770Y-95589276D01*
X200660028Y-95590442D01*
X200714592Y-95605063D01*
X200770864Y-95609985D01*
X200776199Y-95610687D01*
X200831847Y-95620500D01*
X200831850Y-95620500D01*
X203802998Y-95620500D01*
X203803001Y-95620500D01*
X203858648Y-95610687D01*
X203863959Y-95609987D01*
X203920256Y-95605063D01*
X203974823Y-95590441D01*
X203980071Y-95589277D01*
X204035719Y-95579466D01*
X204088834Y-95560132D01*
X204093930Y-95558526D01*
X204148511Y-95543903D01*
X204199705Y-95520029D01*
X204204695Y-95517963D01*
X204257771Y-95498646D01*
X204257770Y-95498646D01*
X204257774Y-95498645D01*
X204306711Y-95470389D01*
X204311470Y-95467911D01*
X204362677Y-95444035D01*
X204408965Y-95411622D01*
X204413476Y-95408748D01*
X204462422Y-95380491D01*
X204505699Y-95344175D01*
X204509973Y-95340896D01*
X204556249Y-95308495D01*
X204723343Y-95141401D01*
X204723343Y-95141399D01*
X204730404Y-95134339D01*
X204730410Y-95134332D01*
X206604332Y-93260410D01*
X206604339Y-93260404D01*
X206611399Y-93253343D01*
X206611401Y-93253343D01*
X206778495Y-93086249D01*
X206810903Y-93039963D01*
X206814186Y-93035686D01*
X206850489Y-92992423D01*
X206850491Y-92992421D01*
X206878744Y-92943483D01*
X206881628Y-92938956D01*
X206914035Y-92892677D01*
X206937911Y-92841473D01*
X206940397Y-92836699D01*
X206968645Y-92787774D01*
X206987963Y-92734692D01*
X206990029Y-92729705D01*
X207013903Y-92678511D01*
X207028526Y-92623930D01*
X207030132Y-92618834D01*
X207049466Y-92565719D01*
X207059279Y-92510063D01*
X207060439Y-92504830D01*
X207075063Y-92450256D01*
X207079986Y-92393982D01*
X207080686Y-92388661D01*
X207090501Y-92333001D01*
X207090501Y-92096695D01*
X207090501Y-92093964D01*
X207090500Y-92093939D01*
X207090500Y-81890756D01*
X207110185Y-81823717D01*
X207126814Y-81803080D01*
X215926177Y-73003716D01*
X215987498Y-72970233D01*
X216005001Y-72967716D01*
X216164026Y-72956343D01*
X216422678Y-72900077D01*
X216670689Y-72807574D01*
X216903011Y-72680716D01*
X217114915Y-72522087D01*
X217302087Y-72334915D01*
X217460716Y-72123011D01*
X217587574Y-71890689D01*
X217680077Y-71642678D01*
X217736343Y-71384026D01*
X217755227Y-71120000D01*
X217736343Y-70855974D01*
X217680077Y-70597322D01*
X217587574Y-70349311D01*
X217466091Y-70126833D01*
X217460719Y-70116994D01*
X217460714Y-70116986D01*
X217302093Y-69905092D01*
X217302077Y-69905074D01*
X217114925Y-69717922D01*
X217114907Y-69717906D01*
X216903013Y-69559285D01*
X216903005Y-69559280D01*
X216670694Y-69432428D01*
X216670690Y-69432426D01*
X216422673Y-69339921D01*
X216164034Y-69283658D01*
X216164027Y-69283657D01*
X215900001Y-69264773D01*
X215899999Y-69264773D01*
X215635972Y-69283657D01*
X215635965Y-69283658D01*
X215377326Y-69339921D01*
X215129309Y-69432426D01*
X215129305Y-69432428D01*
X214896994Y-69559280D01*
X214896986Y-69559285D01*
X214704310Y-69703520D01*
X214638845Y-69727937D01*
X214570573Y-69713085D01*
X214555690Y-69703520D01*
X214363013Y-69559285D01*
X214363005Y-69559280D01*
X214130694Y-69432428D01*
X214130690Y-69432426D01*
X213882673Y-69339921D01*
X213624034Y-69283658D01*
X213624027Y-69283657D01*
X213360001Y-69264773D01*
X213359999Y-69264773D01*
X213095972Y-69283657D01*
X213095965Y-69283658D01*
X212837326Y-69339921D01*
X212637833Y-69414328D01*
X212568141Y-69419312D01*
X212506818Y-69385827D01*
X212473334Y-69324504D01*
X212470500Y-69298146D01*
X212470500Y-62781853D01*
X212490185Y-62714814D01*
X212542989Y-62669059D01*
X212612147Y-62659115D01*
X212637824Y-62665668D01*
X212837322Y-62740077D01*
X213095974Y-62796343D01*
X213339660Y-62813772D01*
X213359999Y-62815227D01*
X213360000Y-62815227D01*
X213360001Y-62815227D01*
X213378885Y-62813876D01*
X213624026Y-62796343D01*
X213882678Y-62740077D01*
X214130689Y-62647574D01*
X214363011Y-62520716D01*
X214554645Y-62377261D01*
X214555690Y-62376479D01*
X214621154Y-62352062D01*
X214689427Y-62366914D01*
X214704310Y-62376479D01*
X214896986Y-62520714D01*
X214896994Y-62520719D01*
X215129305Y-62647571D01*
X215129309Y-62647573D01*
X215129311Y-62647574D01*
X215377322Y-62740077D01*
X215377325Y-62740077D01*
X215377326Y-62740078D01*
X215537650Y-62774954D01*
X215635974Y-62796343D01*
X215879660Y-62813772D01*
X215899999Y-62815227D01*
X215900000Y-62815227D01*
X215900001Y-62815227D01*
X215918885Y-62813876D01*
X216164026Y-62796343D01*
X216422678Y-62740077D01*
X216670689Y-62647574D01*
X216903011Y-62520716D01*
X217114915Y-62362087D01*
X217302087Y-62174915D01*
X217460716Y-61963011D01*
X217587574Y-61730689D01*
X217680077Y-61482678D01*
X217736343Y-61224026D01*
X217755227Y-60960000D01*
X217736343Y-60695974D01*
X217680077Y-60437322D01*
X217587574Y-60189311D01*
X217466091Y-59966833D01*
X217460719Y-59956994D01*
X217460714Y-59956986D01*
X217302093Y-59745092D01*
X217302077Y-59745074D01*
X217114925Y-59557922D01*
X217114907Y-59557906D01*
X216903013Y-59399285D01*
X216903005Y-59399280D01*
X216670694Y-59272428D01*
X216670690Y-59272426D01*
X216422673Y-59179921D01*
X216164034Y-59123658D01*
X216164027Y-59123657D01*
X216005009Y-59112283D01*
X215939545Y-59087866D01*
X215926175Y-59076280D01*
X211860650Y-55010755D01*
X211860630Y-55010733D01*
X211691403Y-54841506D01*
X211645133Y-54809108D01*
X211640840Y-54805814D01*
X211597576Y-54769511D01*
X211597574Y-54769509D01*
X211548653Y-54741264D01*
X211544090Y-54738357D01*
X211497830Y-54705965D01*
X211497828Y-54705964D01*
X211446644Y-54682097D01*
X211441844Y-54679598D01*
X211392930Y-54651357D01*
X211392928Y-54651356D01*
X211392926Y-54651355D01*
X211339834Y-54632031D01*
X211334863Y-54629972D01*
X211302555Y-54614906D01*
X211283664Y-54606097D01*
X211283657Y-54606095D01*
X211229105Y-54591477D01*
X211223944Y-54589850D01*
X211170873Y-54570534D01*
X211115242Y-54560724D01*
X211109960Y-54559553D01*
X211055410Y-54544937D01*
X210999139Y-54540013D01*
X210993776Y-54539307D01*
X210968858Y-54534914D01*
X210938153Y-54529500D01*
X210938149Y-54529500D01*
X208275710Y-54529500D01*
X208275686Y-54529499D01*
X208273153Y-54529499D01*
X208036847Y-54529499D01*
X207985319Y-54538583D01*
X207981218Y-54539307D01*
X207975855Y-54540013D01*
X207919589Y-54544937D01*
X207865036Y-54559554D01*
X207859755Y-54560725D01*
X207804128Y-54570534D01*
X207751063Y-54589848D01*
X207745902Y-54591475D01*
X207691338Y-54606096D01*
X207640138Y-54629969D01*
X207635143Y-54632038D01*
X207582070Y-54651356D01*
X207533149Y-54679600D01*
X207528352Y-54682096D01*
X207477174Y-54705963D01*
X207430908Y-54738358D01*
X207426347Y-54741263D01*
X207377425Y-54769510D01*
X207334157Y-54805814D01*
X207329867Y-54809106D01*
X207283603Y-54841501D01*
X207283595Y-54841508D01*
X207116502Y-55008602D01*
X205035057Y-57090046D01*
X204973734Y-57123531D01*
X204904042Y-57118547D01*
X204848109Y-57076676D01*
X204831989Y-57055142D01*
X204750739Y-56946605D01*
X204750734Y-56946600D01*
X204750729Y-56946594D01*
X204548405Y-56744270D01*
X204548387Y-56744254D01*
X204319317Y-56572775D01*
X204319309Y-56572770D01*
X204068166Y-56435635D01*
X204068167Y-56435635D01*
X203960915Y-56395632D01*
X203800046Y-56335631D01*
X203800043Y-56335630D01*
X203800037Y-56335628D01*
X203520433Y-56274804D01*
X203235001Y-56254390D01*
X203234999Y-56254390D01*
X202949566Y-56274804D01*
X202669962Y-56335628D01*
X202401833Y-56435635D01*
X202150690Y-56572770D01*
X202150682Y-56572775D01*
X201921612Y-56744254D01*
X201921594Y-56744270D01*
X201719270Y-56946594D01*
X201719254Y-56946612D01*
X201547775Y-57175682D01*
X201547770Y-57175690D01*
X201410635Y-57426833D01*
X201310628Y-57694962D01*
X201249804Y-57974566D01*
X201229390Y-58259998D01*
X201229390Y-58260001D01*
X201249804Y-58545433D01*
X201310628Y-58825037D01*
X201410635Y-59093166D01*
X201547770Y-59344309D01*
X201631148Y-59455690D01*
X201655564Y-59521155D01*
X201640712Y-59589428D01*
X201631148Y-59604310D01*
X201547770Y-59715690D01*
X201410635Y-59966833D01*
X201310628Y-60234962D01*
X201249804Y-60514566D01*
X201229390Y-60799998D01*
X201229390Y-60800001D01*
X201249804Y-61085433D01*
X201310628Y-61365037D01*
X201410635Y-61633166D01*
X201547770Y-61884309D01*
X201547772Y-61884312D01*
X201547774Y-61884315D01*
X201631148Y-61995690D01*
X201655564Y-62061155D01*
X201640712Y-62129428D01*
X201631148Y-62144310D01*
X201547770Y-62255690D01*
X201410635Y-62506833D01*
X201310628Y-62774962D01*
X201249804Y-63054566D01*
X201229390Y-63339998D01*
X201229390Y-63340001D01*
X201249804Y-63625433D01*
X201310628Y-63905037D01*
X201410635Y-64173166D01*
X201547770Y-64424309D01*
X201631148Y-64535690D01*
X201655564Y-64601155D01*
X201640712Y-64669428D01*
X201631148Y-64684310D01*
X201547770Y-64795690D01*
X201410635Y-65046833D01*
X201310628Y-65314962D01*
X201249804Y-65594566D01*
X201229390Y-65879998D01*
X201229390Y-65880001D01*
X201249804Y-66165433D01*
X201310628Y-66445037D01*
X201310630Y-66445043D01*
X201310631Y-66445046D01*
X201410633Y-66713161D01*
X201410635Y-66713166D01*
X201547770Y-66964309D01*
X201547771Y-66964310D01*
X201547774Y-66964315D01*
X201631147Y-67075689D01*
X201631148Y-67075690D01*
X201655564Y-67141155D01*
X201640712Y-67209428D01*
X201631151Y-67224305D01*
X201590547Y-67278546D01*
X201547770Y-67335690D01*
X201410635Y-67586833D01*
X201310628Y-67854962D01*
X201249804Y-68134566D01*
X201229390Y-68419998D01*
X201229390Y-68420001D01*
X201249804Y-68705433D01*
X201310628Y-68985037D01*
X201410635Y-69253166D01*
X201547770Y-69504309D01*
X201631148Y-69615690D01*
X201655564Y-69681155D01*
X201640712Y-69749428D01*
X201631148Y-69764310D01*
X201547770Y-69875690D01*
X201410635Y-70126833D01*
X201310628Y-70394962D01*
X201249804Y-70674566D01*
X201229390Y-70959998D01*
X201229390Y-70960001D01*
X201249804Y-71245433D01*
X201310628Y-71525037D01*
X201410635Y-71793166D01*
X201547770Y-72044309D01*
X201547771Y-72044310D01*
X201547774Y-72044315D01*
X201631147Y-72155689D01*
X201631148Y-72155690D01*
X201655564Y-72221155D01*
X201640712Y-72289428D01*
X201631148Y-72304310D01*
X201547770Y-72415690D01*
X201410635Y-72666833D01*
X201310628Y-72934962D01*
X201249804Y-73214566D01*
X201229390Y-73499998D01*
X201229390Y-73500004D01*
X201231738Y-73532844D01*
X201216885Y-73601116D01*
X201195735Y-73629368D01*
X199793602Y-75031502D01*
X199626508Y-75198595D01*
X199626501Y-75198603D01*
X199594109Y-75244863D01*
X199590817Y-75249154D01*
X199554513Y-75292419D01*
X199554508Y-75292427D01*
X199526262Y-75341348D01*
X199523356Y-75345910D01*
X199490965Y-75392169D01*
X199467095Y-75443356D01*
X199464598Y-75448153D01*
X199436357Y-75497070D01*
X199436351Y-75497083D01*
X199417033Y-75550158D01*
X199414963Y-75555156D01*
X199391099Y-75606330D01*
X199391095Y-75606342D01*
X199376477Y-75660895D01*
X199374850Y-75666056D01*
X199355534Y-75719126D01*
X199345724Y-75774757D01*
X199344554Y-75780037D01*
X199329937Y-75834593D01*
X199325013Y-75890861D01*
X199324307Y-75896224D01*
X199314500Y-75951847D01*
X199314500Y-75951850D01*
X199314500Y-87556000D01*
X199294815Y-87623039D01*
X199242011Y-87668794D01*
X199190500Y-87680000D01*
X184340360Y-87680000D01*
X184273321Y-87660315D01*
X184227566Y-87607511D01*
X184216832Y-87545193D01*
X184235659Y-87330001D01*
X184235659Y-87329999D01*
X184231662Y-87284315D01*
X184230735Y-87273728D01*
X184230500Y-87268326D01*
X184230500Y-65726848D01*
X184230500Y-65726846D01*
X184220688Y-65671205D01*
X184219984Y-65665852D01*
X184215063Y-65609594D01*
X184215061Y-65609585D01*
X184200441Y-65555024D01*
X184199275Y-65549768D01*
X184189465Y-65494129D01*
X184170147Y-65441054D01*
X184168521Y-65435895D01*
X184153904Y-65381341D01*
X184153903Y-65381337D01*
X184130026Y-65330133D01*
X184127965Y-65325158D01*
X184108644Y-65272074D01*
X184080395Y-65223145D01*
X184077912Y-65218375D01*
X184054035Y-65167171D01*
X184021634Y-65120898D01*
X184018728Y-65116335D01*
X184006210Y-65094655D01*
X183990490Y-65067426D01*
X183990488Y-65067424D01*
X183990488Y-65067423D01*
X183954192Y-65024168D01*
X183950898Y-65019875D01*
X183918491Y-64973594D01*
X183751401Y-64806505D01*
X183751400Y-64806504D01*
X179874264Y-60929369D01*
X179840779Y-60868046D01*
X179838261Y-60832841D01*
X179840610Y-60799999D01*
X179840610Y-60799998D01*
X179833169Y-60695965D01*
X179820196Y-60514572D01*
X179803392Y-60437326D01*
X179759371Y-60234962D01*
X179759370Y-60234960D01*
X179759369Y-60234954D01*
X179659367Y-59966839D01*
X179653988Y-59956989D01*
X179522229Y-59715690D01*
X179522228Y-59715689D01*
X179522226Y-59715685D01*
X179438849Y-59604307D01*
X179414434Y-59538847D01*
X179429285Y-59470574D01*
X179438841Y-59455703D01*
X179522226Y-59344315D01*
X179659367Y-59093161D01*
X179759369Y-58825046D01*
X179820196Y-58545428D01*
X179840610Y-58260000D01*
X179820196Y-57974572D01*
X179759369Y-57694954D01*
X179659367Y-57426839D01*
X179531830Y-57193274D01*
X179522229Y-57175690D01*
X179522224Y-57175682D01*
X179350745Y-56946612D01*
X179350729Y-56946594D01*
X179148405Y-56744270D01*
X179148387Y-56744254D01*
X178919317Y-56572775D01*
X178919309Y-56572770D01*
X178668166Y-56435635D01*
X178668167Y-56435635D01*
X178560915Y-56395632D01*
X178400046Y-56335631D01*
X178400043Y-56335630D01*
X178400037Y-56335628D01*
X178120433Y-56274804D01*
X177835001Y-56254390D01*
X177834999Y-56254390D01*
X177549566Y-56274804D01*
X177269962Y-56335628D01*
X177001833Y-56435635D01*
X176750690Y-56572770D01*
X176750682Y-56572775D01*
X176521612Y-56744254D01*
X176521594Y-56744270D01*
X176319270Y-56946594D01*
X176319254Y-56946612D01*
X176147775Y-57175682D01*
X176147770Y-57175690D01*
X176010635Y-57426833D01*
X175910628Y-57694962D01*
X175849804Y-57974566D01*
X175829390Y-58259998D01*
X175829390Y-58260001D01*
X175849804Y-58545433D01*
X175910628Y-58825037D01*
X176010635Y-59093166D01*
X176147770Y-59344309D01*
X176231148Y-59455690D01*
X176255564Y-59521155D01*
X176240712Y-59589428D01*
X176231148Y-59604310D01*
X176147770Y-59715690D01*
X176010635Y-59966833D01*
X175910628Y-60234962D01*
X175849804Y-60514566D01*
X175829390Y-60799998D01*
X175829390Y-60800001D01*
X175849804Y-61085433D01*
X175910628Y-61365037D01*
X176010635Y-61633166D01*
X176147770Y-61884309D01*
X176147772Y-61884312D01*
X176147774Y-61884315D01*
X176231148Y-61995690D01*
X176255564Y-62061155D01*
X176240712Y-62129428D01*
X176231148Y-62144310D01*
X176147770Y-62255690D01*
X176010635Y-62506833D01*
X175910628Y-62774962D01*
X175849804Y-63054566D01*
X175829390Y-63339998D01*
X175829390Y-63340001D01*
X175849804Y-63625433D01*
X175910628Y-63905037D01*
X176010635Y-64173166D01*
X176147770Y-64424309D01*
X176231148Y-64535690D01*
X176255564Y-64601155D01*
X176240712Y-64669428D01*
X176231148Y-64684310D01*
X176147770Y-64795690D01*
X176010635Y-65046833D01*
X175910628Y-65314962D01*
X175849804Y-65594566D01*
X175829390Y-65879998D01*
X175829390Y-65880001D01*
X175849804Y-66165433D01*
X175910628Y-66445037D01*
X175910630Y-66445043D01*
X175910631Y-66445046D01*
X176010633Y-66713161D01*
X176010635Y-66713166D01*
X176147770Y-66964309D01*
X176147775Y-66964317D01*
X176231147Y-67075689D01*
X176255564Y-67141153D01*
X176240712Y-67209426D01*
X176231150Y-67224305D01*
X176221893Y-67236672D01*
X176165961Y-67278546D01*
X176096270Y-67283533D01*
X176034947Y-67250052D01*
X174106819Y-65321923D01*
X174073334Y-65260600D01*
X174070500Y-65234242D01*
X174070500Y-57671351D01*
X174090185Y-57604312D01*
X174119413Y-57574751D01*
X174118533Y-57573672D01*
X174281109Y-57441109D01*
X174292745Y-57426839D01*
X174409698Y-57283407D01*
X174503909Y-57103049D01*
X174559886Y-56907418D01*
X174570500Y-56788037D01*
X174570499Y-54971964D01*
X174559886Y-54852582D01*
X174503909Y-54656951D01*
X174409698Y-54476593D01*
X174341447Y-54392890D01*
X174314338Y-54328494D01*
X174326347Y-54259664D01*
X174328706Y-54255122D01*
X174407574Y-54110689D01*
X174500077Y-53862678D01*
X174556343Y-53604026D01*
X174575227Y-53340000D01*
X174556343Y-53075974D01*
X174500077Y-52817322D01*
X174407574Y-52569311D01*
X174280716Y-52336989D01*
X174280714Y-52336986D01*
X174122093Y-52125092D01*
X174122077Y-52125074D01*
X174118969Y-52121966D01*
X175834500Y-52121966D01*
X175834501Y-54238032D01*
X175834501Y-54238033D01*
X175845113Y-54357415D01*
X175901089Y-54553045D01*
X175901090Y-54553048D01*
X175901091Y-54553049D01*
X175995302Y-54733407D01*
X176000608Y-54739914D01*
X176123890Y-54891109D01*
X176217803Y-54967684D01*
X176281593Y-55019698D01*
X176461951Y-55113909D01*
X176657582Y-55169886D01*
X176776963Y-55180500D01*
X176776964Y-55180499D01*
X176776965Y-55180500D01*
X176776966Y-55180500D01*
X177683851Y-55180499D01*
X178893036Y-55180499D01*
X179012418Y-55169886D01*
X179208049Y-55113909D01*
X179388407Y-55019698D01*
X179546109Y-54891109D01*
X179674698Y-54733407D01*
X179768909Y-54553049D01*
X179824886Y-54357418D01*
X179835500Y-54238037D01*
X179835499Y-52121964D01*
X179824886Y-52002582D01*
X179768909Y-51806951D01*
X179674698Y-51626593D01*
X179620014Y-51559528D01*
X179546109Y-51468890D01*
X179388409Y-51340304D01*
X179388410Y-51340304D01*
X179388407Y-51340302D01*
X179208049Y-51246091D01*
X179208048Y-51246090D01*
X179208045Y-51246089D01*
X179090829Y-51212550D01*
X179012418Y-51190114D01*
X179012415Y-51190113D01*
X179012413Y-51190113D01*
X178921983Y-51182073D01*
X178893037Y-51179500D01*
X178893035Y-51179500D01*
X178893034Y-51179500D01*
X177986148Y-51179500D01*
X176776964Y-51179501D01*
X176747727Y-51182100D01*
X176657584Y-51190113D01*
X176461954Y-51246089D01*
X176371772Y-51293196D01*
X176281593Y-51340302D01*
X176281591Y-51340303D01*
X176281590Y-51340304D01*
X176123890Y-51468890D01*
X175995304Y-51626590D01*
X175901089Y-51806954D01*
X175856332Y-51963376D01*
X175848123Y-51992068D01*
X175845114Y-52002583D01*
X175845113Y-52002586D01*
X175834500Y-52121965D01*
X175834500Y-52121966D01*
X174118969Y-52121966D01*
X173934925Y-51937922D01*
X173934907Y-51937906D01*
X173723013Y-51779285D01*
X173723005Y-51779280D01*
X173490694Y-51652428D01*
X173490695Y-51652428D01*
X173318034Y-51588029D01*
X173273687Y-51559528D01*
X171866819Y-50152659D01*
X171833334Y-50091336D01*
X171830500Y-50064978D01*
X171830500Y-50034500D01*
X171850185Y-49967461D01*
X171902989Y-49921706D01*
X171954500Y-49910500D01*
X197579978Y-49910500D01*
X197647017Y-49930185D01*
X197667659Y-49946819D01*
X198140266Y-50419426D01*
X198895231Y-51174390D01*
X199544489Y-51823648D01*
X199544502Y-51823662D01*
X201241721Y-53520881D01*
X201275206Y-53582204D01*
X201310628Y-53745037D01*
X201310630Y-53745043D01*
X201310631Y-53745046D01*
X201373186Y-53912762D01*
X201410635Y-54013166D01*
X201547770Y-54264309D01*
X201547775Y-54264317D01*
X201719254Y-54493387D01*
X201719270Y-54493405D01*
X201921594Y-54695729D01*
X201921612Y-54695745D01*
X202150682Y-54867224D01*
X202150690Y-54867229D01*
X202401833Y-55004364D01*
X202401832Y-55004364D01*
X202401836Y-55004365D01*
X202401839Y-55004367D01*
X202669954Y-55104369D01*
X202669960Y-55104370D01*
X202669962Y-55104371D01*
X202949566Y-55165195D01*
X202949568Y-55165195D01*
X202949572Y-55165196D01*
X203203220Y-55183337D01*
X203234999Y-55185610D01*
X203235000Y-55185610D01*
X203235001Y-55185610D01*
X203263595Y-55183564D01*
X203520428Y-55165196D01*
X203800046Y-55104369D01*
X204068161Y-55004367D01*
X204319315Y-54867226D01*
X204548395Y-54695739D01*
X204750739Y-54493395D01*
X204922226Y-54264315D01*
X205059367Y-54013161D01*
X205159369Y-53745046D01*
X205194792Y-53582203D01*
X205228273Y-53520885D01*
X208802341Y-49946819D01*
X208863664Y-49913334D01*
X208890022Y-49910500D01*
X210084978Y-49910500D01*
X210152017Y-49930185D01*
X210172659Y-49946819D01*
X212643181Y-52417340D01*
X212676666Y-52478663D01*
X212679500Y-52505021D01*
X212679501Y-54698032D01*
X212679501Y-54698033D01*
X212690113Y-54817415D01*
X212746089Y-55013045D01*
X212746090Y-55013048D01*
X212746091Y-55013049D01*
X212840302Y-55193407D01*
X212840304Y-55193409D01*
X212968890Y-55351109D01*
X213062803Y-55427684D01*
X213126593Y-55479698D01*
X213306951Y-55573909D01*
X213502582Y-55629886D01*
X213621963Y-55640500D01*
X213621964Y-55640499D01*
X213621965Y-55640500D01*
X213621966Y-55640500D01*
X214785994Y-55640499D01*
X216338036Y-55640499D01*
X216457418Y-55629886D01*
X216653049Y-55573909D01*
X216833407Y-55479698D01*
X216991109Y-55351109D01*
X217119698Y-55193407D01*
X217213909Y-55013049D01*
X217269886Y-54817418D01*
X217280500Y-54698037D01*
X217280499Y-51981964D01*
X217269886Y-51862582D01*
X217213909Y-51666951D01*
X217119698Y-51486593D01*
X217067684Y-51422803D01*
X216991109Y-51328890D01*
X216833409Y-51200304D01*
X216833410Y-51200304D01*
X216833407Y-51200302D01*
X216653049Y-51106091D01*
X216653048Y-51106090D01*
X216653045Y-51106089D01*
X216535829Y-51072550D01*
X216457418Y-51050114D01*
X216457415Y-51050113D01*
X216457413Y-51050113D01*
X216366983Y-51042073D01*
X216338037Y-51039500D01*
X216338035Y-51039500D01*
X215985021Y-51039500D01*
X215917982Y-51019815D01*
X215897340Y-51003181D01*
X214130842Y-49236683D01*
X213534159Y-48640000D01*
X215674564Y-48640000D01*
X215694287Y-48940918D01*
X215694288Y-48940930D01*
X215753118Y-49236683D01*
X215753122Y-49236698D01*
X215850053Y-49522247D01*
X215850062Y-49522268D01*
X215983431Y-49792713D01*
X215983435Y-49792720D01*
X216150973Y-50043459D01*
X216349810Y-50270189D01*
X216576540Y-50469026D01*
X216827279Y-50636564D01*
X216827286Y-50636568D01*
X217097731Y-50769937D01*
X217097736Y-50769939D01*
X217097748Y-50769945D01*
X217383309Y-50866880D01*
X217583251Y-50906651D01*
X217679069Y-50925711D01*
X217679070Y-50925711D01*
X217679080Y-50925713D01*
X217980000Y-50945436D01*
X218280920Y-50925713D01*
X218576691Y-50866880D01*
X218862252Y-50769945D01*
X219132718Y-50636566D01*
X219383461Y-50469025D01*
X219610189Y-50270189D01*
X219809025Y-50043461D01*
X219976566Y-49792718D01*
X220109945Y-49522252D01*
X220206880Y-49236691D01*
X220265713Y-48940920D01*
X220285436Y-48640000D01*
X220265713Y-48339080D01*
X220206880Y-48043309D01*
X220109945Y-47757748D01*
X219976566Y-47487282D01*
X219951781Y-47450189D01*
X219809026Y-47236540D01*
X219610189Y-47009810D01*
X219383459Y-46810973D01*
X219132720Y-46643435D01*
X219132713Y-46643431D01*
X218862268Y-46510062D01*
X218862247Y-46510053D01*
X218576698Y-46413122D01*
X218576692Y-46413120D01*
X218576691Y-46413120D01*
X218576689Y-46413119D01*
X218576683Y-46413118D01*
X218280930Y-46354288D01*
X218280921Y-46354287D01*
X218280920Y-46354287D01*
X217980000Y-46334564D01*
X217679080Y-46354287D01*
X217679079Y-46354287D01*
X217679069Y-46354288D01*
X217383316Y-46413118D01*
X217383301Y-46413122D01*
X217097752Y-46510053D01*
X217097731Y-46510062D01*
X216827286Y-46643431D01*
X216827279Y-46643435D01*
X216576540Y-46810973D01*
X216349810Y-47009810D01*
X216150973Y-47236540D01*
X215983435Y-47487279D01*
X215983431Y-47487286D01*
X215850062Y-47757731D01*
X215850053Y-47757752D01*
X215753122Y-48043301D01*
X215753118Y-48043316D01*
X215694288Y-48339069D01*
X215694287Y-48339081D01*
X215674564Y-48640000D01*
X213534159Y-48640000D01*
X212034650Y-47140490D01*
X212031367Y-47136939D01*
X211990689Y-47089311D01*
X211793140Y-46920588D01*
X211571628Y-46784846D01*
X211571627Y-46784845D01*
X211571623Y-46784843D01*
X211405627Y-46716086D01*
X211331610Y-46685427D01*
X211331611Y-46685427D01*
X211156685Y-46643431D01*
X211078994Y-46624779D01*
X211078992Y-46624778D01*
X211078991Y-46624778D01*
X210884853Y-46609500D01*
X210882426Y-46609309D01*
X210820000Y-46604396D01*
X210819999Y-46604396D01*
X210757573Y-46609309D01*
X210752707Y-46609500D01*
X208222293Y-46609500D01*
X208217427Y-46609309D01*
X208155000Y-46604396D01*
X208090147Y-46609500D01*
X207896009Y-46624778D01*
X207643389Y-46685427D01*
X207403376Y-46784843D01*
X207181859Y-46920588D01*
X206984310Y-47089312D01*
X206943641Y-47136927D01*
X206940336Y-47140502D01*
X203322680Y-50758158D01*
X203261357Y-50791643D01*
X203191665Y-50786659D01*
X203147318Y-50758158D01*
X201878662Y-49489502D01*
X201878648Y-49489489D01*
X201330079Y-48940920D01*
X200474426Y-48085266D01*
X200146891Y-47757731D01*
X199529650Y-47140490D01*
X199526367Y-47136939D01*
X199485689Y-47089311D01*
X199288140Y-46920588D01*
X199066628Y-46784846D01*
X199066627Y-46784845D01*
X199066623Y-46784843D01*
X198900627Y-46716086D01*
X198826610Y-46685427D01*
X198826611Y-46685427D01*
X198651685Y-46643431D01*
X198573994Y-46624779D01*
X198573992Y-46624778D01*
X198573991Y-46624778D01*
X198379853Y-46609500D01*
X198377426Y-46609309D01*
X198315000Y-46604396D01*
X198314999Y-46604396D01*
X198252573Y-46609309D01*
X198247707Y-46609500D01*
X179637904Y-46609500D01*
X179570865Y-46589815D01*
X179525110Y-46537011D01*
X179515166Y-46467853D01*
X179544191Y-46404297D01*
X179547006Y-46401159D01*
X179627429Y-46314483D01*
X179627433Y-46314479D01*
X179775228Y-46097704D01*
X179889063Y-45861323D01*
X179966396Y-45610615D01*
X180005499Y-45351187D01*
X201014500Y-45351187D01*
X201034794Y-45485823D01*
X201053604Y-45610615D01*
X201053605Y-45610617D01*
X201053606Y-45610623D01*
X201130938Y-45861326D01*
X201244767Y-46097696D01*
X201244768Y-46097697D01*
X201244770Y-46097700D01*
X201244772Y-46097704D01*
X201392567Y-46314479D01*
X201571014Y-46506801D01*
X201571018Y-46506804D01*
X201571019Y-46506805D01*
X201776143Y-46670386D01*
X202003357Y-46801568D01*
X202247584Y-46897420D01*
X202503370Y-46955802D01*
X202503376Y-46955802D01*
X202503379Y-46955803D01*
X202699500Y-46970500D01*
X202699506Y-46970500D01*
X202830500Y-46970500D01*
X203026620Y-46955803D01*
X203026622Y-46955802D01*
X203026630Y-46955802D01*
X203282416Y-46897420D01*
X203526643Y-46801568D01*
X203753857Y-46670386D01*
X203958981Y-46506805D01*
X204137433Y-46314479D01*
X204285228Y-46097704D01*
X204399063Y-45861323D01*
X204476396Y-45610615D01*
X204515500Y-45351182D01*
X204515500Y-45088818D01*
X204476396Y-44829385D01*
X204399063Y-44578677D01*
X204387121Y-44553880D01*
X204285232Y-44342303D01*
X204285231Y-44342302D01*
X204285230Y-44342301D01*
X204285228Y-44342296D01*
X204137433Y-44125521D01*
X204127441Y-44114753D01*
X203958985Y-43933198D01*
X203919533Y-43901736D01*
X203753857Y-43769614D01*
X203526643Y-43638432D01*
X203282416Y-43542580D01*
X203282411Y-43542578D01*
X203282402Y-43542576D01*
X203064818Y-43492914D01*
X203026630Y-43484198D01*
X203026629Y-43484197D01*
X203026625Y-43484197D01*
X203026620Y-43484196D01*
X202830500Y-43469500D01*
X202830494Y-43469500D01*
X202699506Y-43469500D01*
X202699500Y-43469500D01*
X202503379Y-43484196D01*
X202503374Y-43484197D01*
X202247597Y-43542576D01*
X202247578Y-43542582D01*
X202003356Y-43638432D01*
X201776143Y-43769614D01*
X201571014Y-43933198D01*
X201392567Y-44125520D01*
X201244768Y-44342302D01*
X201244767Y-44342303D01*
X201130938Y-44578673D01*
X201053606Y-44829376D01*
X201053605Y-44829381D01*
X201053604Y-44829385D01*
X201038853Y-44927247D01*
X201014500Y-45088812D01*
X201014500Y-45351187D01*
X180005499Y-45351187D01*
X180005500Y-45351182D01*
X180005500Y-45088818D01*
X179966396Y-44829385D01*
X179889063Y-44578677D01*
X179877121Y-44553880D01*
X179775232Y-44342303D01*
X179775231Y-44342302D01*
X179775230Y-44342301D01*
X179775228Y-44342296D01*
X179627433Y-44125521D01*
X179617441Y-44114753D01*
X179448985Y-43933198D01*
X179409533Y-43901736D01*
X179243857Y-43769614D01*
X179016643Y-43638432D01*
X178772416Y-43542580D01*
X178772411Y-43542578D01*
X178772402Y-43542576D01*
X178554818Y-43492914D01*
X178516630Y-43484198D01*
X178516629Y-43484197D01*
X178516625Y-43484197D01*
X178516620Y-43484196D01*
X178320500Y-43469500D01*
X178320494Y-43469500D01*
X178189506Y-43469500D01*
X178189500Y-43469500D01*
X177993379Y-43484196D01*
X177993374Y-43484197D01*
X177737597Y-43542576D01*
X177737578Y-43542582D01*
X177493356Y-43638432D01*
X177266143Y-43769614D01*
X177061014Y-43933198D01*
X176882567Y-44125520D01*
X176734768Y-44342302D01*
X176734767Y-44342303D01*
X176620938Y-44578673D01*
X176543606Y-44829376D01*
X176543605Y-44829381D01*
X176543604Y-44829385D01*
X176528853Y-44927247D01*
X176504500Y-45088812D01*
X176504500Y-45351187D01*
X176524794Y-45485823D01*
X176543604Y-45610615D01*
X176543605Y-45610617D01*
X176543606Y-45610623D01*
X176620938Y-45861326D01*
X176734767Y-46097696D01*
X176734768Y-46097697D01*
X176734770Y-46097700D01*
X176734772Y-46097704D01*
X176882567Y-46314479D01*
X176882570Y-46314483D01*
X176962994Y-46401159D01*
X176994163Y-46463691D01*
X176986576Y-46533147D01*
X176942643Y-46587476D01*
X176876311Y-46609428D01*
X176872096Y-46609500D01*
X170247293Y-46609500D01*
X170242427Y-46609309D01*
X170180000Y-46604396D01*
X170115147Y-46609500D01*
X169921009Y-46624778D01*
X169668389Y-46685427D01*
X169428376Y-46784843D01*
X169206859Y-46920588D01*
X169009311Y-47089311D01*
X168958790Y-47148463D01*
X168900282Y-47186656D01*
X168830415Y-47187154D01*
X168771369Y-47149800D01*
X168741891Y-47086453D01*
X168740500Y-47067931D01*
X168740500Y-35684500D01*
X168760185Y-35617461D01*
X168812989Y-35571706D01*
X168864500Y-35560500D01*
X224835500Y-35560500D01*
X224902539Y-35580185D01*
G37*
%TD.AperFunction*%
%TD*%
M02*
