%TF.GenerationSoftware,KiCad,Pcbnew,7.0.8*%
%TF.CreationDate,2023-12-01T02:07:00-05:00*%
%TF.ProjectId,Esquema KiCad Proyecto,45737175-656d-4612-904b-694361642050,rev?*%
%TF.SameCoordinates,Original*%
%TF.FileFunction,Drillmap*%
%TF.FilePolarity,Positive*%
%FSLAX45Y45*%
G04 Gerber Fmt 4.5, Leading zero omitted, Abs format (unit mm)*
G04 Created by KiCad (PCBNEW 7.0.8) date 2023-12-01 02:07:00*
%MOMM*%
%LPD*%
G01*
G04 APERTURE LIST*
%ADD10C,0.100000*%
%ADD11C,0.200000*%
%ADD12C,0.090000*%
%ADD13C,0.102000*%
%ADD14C,0.120000*%
%ADD15C,0.160000*%
G04 APERTURE END LIST*
D10*
X16764000Y-3556000D02*
X22606000Y-3556000D01*
X22606000Y-10922000D01*
X16764000Y-10922000D01*
X16764000Y-3556000D01*
D11*
D12*
X19767000Y-10369000D02*
X19857000Y-10459000D01*
X19857000Y-10369000D02*
X19767000Y-10459000D01*
X19767000Y-10623000D02*
X19857000Y-10713000D01*
X19857000Y-10623000D02*
X19767000Y-10713000D01*
X20275000Y-9861000D02*
X20365000Y-9951000D01*
X20365000Y-9861000D02*
X20275000Y-9951000D01*
X20275000Y-10115000D02*
X20365000Y-10205000D01*
X20365000Y-10115000D02*
X20275000Y-10205000D01*
D10*
X17322000Y-5080000D02*
G75*
G03*
X17322000Y-5080000I-50000J0D01*
G01*
X17322000Y-5334000D02*
G75*
G03*
X17322000Y-5334000I-50000J0D01*
G01*
X17322000Y-5588000D02*
G75*
G03*
X17322000Y-5588000I-50000J0D01*
G01*
X21132000Y-6096000D02*
G75*
G03*
X21132000Y-6096000I-50000J0D01*
G01*
X21132000Y-7112000D02*
G75*
G03*
X21132000Y-7112000I-50000J0D01*
G01*
X21386000Y-6096000D02*
G75*
G03*
X21386000Y-6096000I-50000J0D01*
G01*
X21386000Y-7112000D02*
G75*
G03*
X21386000Y-7112000I-50000J0D01*
G01*
X21640000Y-6096000D02*
G75*
G03*
X21640000Y-6096000I-50000J0D01*
G01*
X21640000Y-7112000D02*
G75*
G03*
X21640000Y-7112000I-50000J0D01*
G01*
X21894000Y-6096000D02*
G75*
G03*
X21894000Y-6096000I-50000J0D01*
G01*
X21894000Y-7112000D02*
G75*
G03*
X21894000Y-7112000I-50000J0D01*
G01*
D13*
X17783500Y-5267000D02*
X17783500Y-5369000D01*
X17732500Y-5318000D02*
X17834500Y-5318000D01*
X17783500Y-5521000D02*
X17783500Y-5623000D01*
X17732500Y-5572000D02*
X17834500Y-5572000D01*
X17783500Y-5775000D02*
X17783500Y-5877000D01*
X17732500Y-5826000D02*
X17834500Y-5826000D01*
X17783500Y-6029000D02*
X17783500Y-6131000D01*
X17732500Y-6080000D02*
X17834500Y-6080000D01*
X17783500Y-6283000D02*
X17783500Y-6385000D01*
X17732500Y-6334000D02*
X17834500Y-6334000D01*
X17783500Y-6537000D02*
X17783500Y-6639000D01*
X17732500Y-6588000D02*
X17834500Y-6588000D01*
X17783500Y-6791000D02*
X17783500Y-6893000D01*
X17732500Y-6842000D02*
X17834500Y-6842000D01*
X17783500Y-7045000D02*
X17783500Y-7147000D01*
X17732500Y-7096000D02*
X17834500Y-7096000D01*
X17783500Y-7299000D02*
X17783500Y-7401000D01*
X17732500Y-7350000D02*
X17834500Y-7350000D01*
X17783500Y-7553000D02*
X17783500Y-7655000D01*
X17732500Y-7604000D02*
X17834500Y-7604000D01*
X17783500Y-7807000D02*
X17783500Y-7909000D01*
X17732500Y-7858000D02*
X17834500Y-7858000D01*
X17783500Y-8061000D02*
X17783500Y-8163000D01*
X17732500Y-8112000D02*
X17834500Y-8112000D01*
X17783500Y-8315000D02*
X17783500Y-8417000D01*
X17732500Y-8366000D02*
X17834500Y-8366000D01*
X17783500Y-8569000D02*
X17783500Y-8671000D01*
X17732500Y-8620000D02*
X17834500Y-8620000D01*
X17783500Y-8823000D02*
X17783500Y-8925000D01*
X17732500Y-8874000D02*
X17834500Y-8874000D01*
X20323500Y-5267000D02*
X20323500Y-5369000D01*
X20272500Y-5318000D02*
X20374500Y-5318000D01*
X20323500Y-5521000D02*
X20323500Y-5623000D01*
X20272500Y-5572000D02*
X20374500Y-5572000D01*
X20323500Y-5775000D02*
X20323500Y-5877000D01*
X20272500Y-5826000D02*
X20374500Y-5826000D01*
X20323500Y-6029000D02*
X20323500Y-6131000D01*
X20272500Y-6080000D02*
X20374500Y-6080000D01*
X20323500Y-6283000D02*
X20323500Y-6385000D01*
X20272500Y-6334000D02*
X20374500Y-6334000D01*
X20323500Y-6537000D02*
X20323500Y-6639000D01*
X20272500Y-6588000D02*
X20374500Y-6588000D01*
X20323500Y-6791000D02*
X20323500Y-6893000D01*
X20272500Y-6842000D02*
X20374500Y-6842000D01*
X20323500Y-7045000D02*
X20323500Y-7147000D01*
X20272500Y-7096000D02*
X20374500Y-7096000D01*
X20323500Y-7299000D02*
X20323500Y-7401000D01*
X20272500Y-7350000D02*
X20374500Y-7350000D01*
X20323500Y-7553000D02*
X20323500Y-7655000D01*
X20272500Y-7604000D02*
X20374500Y-7604000D01*
X20323500Y-7807000D02*
X20323500Y-7909000D01*
X20272500Y-7858000D02*
X20374500Y-7858000D01*
X20323500Y-8061000D02*
X20323500Y-8163000D01*
X20272500Y-8112000D02*
X20374500Y-8112000D01*
X20323500Y-8315000D02*
X20323500Y-8417000D01*
X20272500Y-8366000D02*
X20374500Y-8366000D01*
X20323500Y-8569000D02*
X20323500Y-8671000D01*
X20272500Y-8620000D02*
X20374500Y-8620000D01*
X20323500Y-8823000D02*
X20323500Y-8925000D01*
X20272500Y-8874000D02*
X20374500Y-8874000D01*
D14*
X17949427Y-10456427D02*
X17949427Y-10371573D01*
X17864573Y-10371573D01*
X17864573Y-10456427D01*
X17949427Y-10456427D01*
X18457427Y-9948427D02*
X18457427Y-9863573D01*
X18372573Y-9863573D01*
X18372573Y-9948427D01*
X18457427Y-9948427D01*
X19219427Y-10456427D02*
X19219427Y-10371573D01*
X19134573Y-10371573D01*
X19134573Y-10456427D01*
X19219427Y-10456427D01*
X19727427Y-9948427D02*
X19727427Y-9863573D01*
X19642573Y-9863573D01*
X19642573Y-9948427D01*
X19727427Y-9948427D01*
D15*
X21498000Y-5414000D02*
X21578000Y-5334000D01*
X21498000Y-5254000D01*
X21418000Y-5334000D01*
X21498000Y-5414000D01*
X21798000Y-4944000D02*
X21878000Y-4864000D01*
X21798000Y-4784000D01*
X21718000Y-4864000D01*
X21798000Y-4944000D01*
X22098000Y-5414000D02*
X22178000Y-5334000D01*
X22098000Y-5254000D01*
X22018000Y-5334000D01*
X22098000Y-5414000D01*
D11*
X17019777Y-11238484D02*
X17019777Y-11038484D01*
X17019777Y-11038484D02*
X17067396Y-11038484D01*
X17067396Y-11038484D02*
X17095967Y-11048008D01*
X17095967Y-11048008D02*
X17115015Y-11067055D01*
X17115015Y-11067055D02*
X17124539Y-11086103D01*
X17124539Y-11086103D02*
X17134063Y-11124198D01*
X17134063Y-11124198D02*
X17134063Y-11152770D01*
X17134063Y-11152770D02*
X17124539Y-11190865D01*
X17124539Y-11190865D02*
X17115015Y-11209912D01*
X17115015Y-11209912D02*
X17095967Y-11228960D01*
X17095967Y-11228960D02*
X17067396Y-11238484D01*
X17067396Y-11238484D02*
X17019777Y-11238484D01*
X17219777Y-11238484D02*
X17219777Y-11105150D01*
X17219777Y-11143246D02*
X17229301Y-11124198D01*
X17229301Y-11124198D02*
X17238824Y-11114674D01*
X17238824Y-11114674D02*
X17257872Y-11105150D01*
X17257872Y-11105150D02*
X17276920Y-11105150D01*
X17343586Y-11238484D02*
X17343586Y-11105150D01*
X17343586Y-11038484D02*
X17334063Y-11048008D01*
X17334063Y-11048008D02*
X17343586Y-11057531D01*
X17343586Y-11057531D02*
X17353110Y-11048008D01*
X17353110Y-11048008D02*
X17343586Y-11038484D01*
X17343586Y-11038484D02*
X17343586Y-11057531D01*
X17467396Y-11238484D02*
X17448348Y-11228960D01*
X17448348Y-11228960D02*
X17438824Y-11209912D01*
X17438824Y-11209912D02*
X17438824Y-11038484D01*
X17572158Y-11238484D02*
X17553110Y-11228960D01*
X17553110Y-11228960D02*
X17543586Y-11209912D01*
X17543586Y-11209912D02*
X17543586Y-11038484D01*
X17800729Y-11238484D02*
X17800729Y-11038484D01*
X17800729Y-11038484D02*
X17867396Y-11181341D01*
X17867396Y-11181341D02*
X17934063Y-11038484D01*
X17934063Y-11038484D02*
X17934063Y-11238484D01*
X18115015Y-11238484D02*
X18115015Y-11133722D01*
X18115015Y-11133722D02*
X18105491Y-11114674D01*
X18105491Y-11114674D02*
X18086444Y-11105150D01*
X18086444Y-11105150D02*
X18048348Y-11105150D01*
X18048348Y-11105150D02*
X18029301Y-11114674D01*
X18115015Y-11228960D02*
X18095967Y-11238484D01*
X18095967Y-11238484D02*
X18048348Y-11238484D01*
X18048348Y-11238484D02*
X18029301Y-11228960D01*
X18029301Y-11228960D02*
X18019777Y-11209912D01*
X18019777Y-11209912D02*
X18019777Y-11190865D01*
X18019777Y-11190865D02*
X18029301Y-11171817D01*
X18029301Y-11171817D02*
X18048348Y-11162293D01*
X18048348Y-11162293D02*
X18095967Y-11162293D01*
X18095967Y-11162293D02*
X18115015Y-11152770D01*
X18210253Y-11105150D02*
X18210253Y-11305150D01*
X18210253Y-11114674D02*
X18229301Y-11105150D01*
X18229301Y-11105150D02*
X18267396Y-11105150D01*
X18267396Y-11105150D02*
X18286444Y-11114674D01*
X18286444Y-11114674D02*
X18295967Y-11124198D01*
X18295967Y-11124198D02*
X18305491Y-11143246D01*
X18305491Y-11143246D02*
X18305491Y-11200388D01*
X18305491Y-11200388D02*
X18295967Y-11219436D01*
X18295967Y-11219436D02*
X18286444Y-11228960D01*
X18286444Y-11228960D02*
X18267396Y-11238484D01*
X18267396Y-11238484D02*
X18229301Y-11238484D01*
X18229301Y-11238484D02*
X18210253Y-11228960D01*
X18391205Y-11219436D02*
X18400729Y-11228960D01*
X18400729Y-11228960D02*
X18391205Y-11238484D01*
X18391205Y-11238484D02*
X18381682Y-11228960D01*
X18381682Y-11228960D02*
X18391205Y-11219436D01*
X18391205Y-11219436D02*
X18391205Y-11238484D01*
X18391205Y-11114674D02*
X18400729Y-11124198D01*
X18400729Y-11124198D02*
X18391205Y-11133722D01*
X18391205Y-11133722D02*
X18381682Y-11124198D01*
X18381682Y-11124198D02*
X18391205Y-11114674D01*
X18391205Y-11114674D02*
X18391205Y-11133722D01*
D12*
X16669000Y-11522000D02*
X16759000Y-11612000D01*
X16759000Y-11522000D02*
X16669000Y-11612000D01*
D11*
X17057872Y-11458484D02*
X17076920Y-11458484D01*
X17076920Y-11458484D02*
X17095967Y-11468008D01*
X17095967Y-11468008D02*
X17105491Y-11477531D01*
X17105491Y-11477531D02*
X17115015Y-11496579D01*
X17115015Y-11496579D02*
X17124539Y-11534674D01*
X17124539Y-11534674D02*
X17124539Y-11582293D01*
X17124539Y-11582293D02*
X17115015Y-11620388D01*
X17115015Y-11620388D02*
X17105491Y-11639436D01*
X17105491Y-11639436D02*
X17095967Y-11648960D01*
X17095967Y-11648960D02*
X17076920Y-11658484D01*
X17076920Y-11658484D02*
X17057872Y-11658484D01*
X17057872Y-11658484D02*
X17038824Y-11648960D01*
X17038824Y-11648960D02*
X17029301Y-11639436D01*
X17029301Y-11639436D02*
X17019777Y-11620388D01*
X17019777Y-11620388D02*
X17010253Y-11582293D01*
X17010253Y-11582293D02*
X17010253Y-11534674D01*
X17010253Y-11534674D02*
X17019777Y-11496579D01*
X17019777Y-11496579D02*
X17029301Y-11477531D01*
X17029301Y-11477531D02*
X17038824Y-11468008D01*
X17038824Y-11468008D02*
X17057872Y-11458484D01*
X17210253Y-11639436D02*
X17219777Y-11648960D01*
X17219777Y-11648960D02*
X17210253Y-11658484D01*
X17210253Y-11658484D02*
X17200729Y-11648960D01*
X17200729Y-11648960D02*
X17210253Y-11639436D01*
X17210253Y-11639436D02*
X17210253Y-11658484D01*
X17315015Y-11658484D02*
X17353110Y-11658484D01*
X17353110Y-11658484D02*
X17372158Y-11648960D01*
X17372158Y-11648960D02*
X17381682Y-11639436D01*
X17381682Y-11639436D02*
X17400729Y-11610865D01*
X17400729Y-11610865D02*
X17410253Y-11572769D01*
X17410253Y-11572769D02*
X17410253Y-11496579D01*
X17410253Y-11496579D02*
X17400729Y-11477531D01*
X17400729Y-11477531D02*
X17391205Y-11468008D01*
X17391205Y-11468008D02*
X17372158Y-11458484D01*
X17372158Y-11458484D02*
X17334063Y-11458484D01*
X17334063Y-11458484D02*
X17315015Y-11468008D01*
X17315015Y-11468008D02*
X17305491Y-11477531D01*
X17305491Y-11477531D02*
X17295967Y-11496579D01*
X17295967Y-11496579D02*
X17295967Y-11544198D01*
X17295967Y-11544198D02*
X17305491Y-11563246D01*
X17305491Y-11563246D02*
X17315015Y-11572769D01*
X17315015Y-11572769D02*
X17334063Y-11582293D01*
X17334063Y-11582293D02*
X17372158Y-11582293D01*
X17372158Y-11582293D02*
X17391205Y-11572769D01*
X17391205Y-11572769D02*
X17400729Y-11563246D01*
X17400729Y-11563246D02*
X17410253Y-11544198D01*
X17534063Y-11458484D02*
X17553110Y-11458484D01*
X17553110Y-11458484D02*
X17572158Y-11468008D01*
X17572158Y-11468008D02*
X17581682Y-11477531D01*
X17581682Y-11477531D02*
X17591205Y-11496579D01*
X17591205Y-11496579D02*
X17600729Y-11534674D01*
X17600729Y-11534674D02*
X17600729Y-11582293D01*
X17600729Y-11582293D02*
X17591205Y-11620388D01*
X17591205Y-11620388D02*
X17581682Y-11639436D01*
X17581682Y-11639436D02*
X17572158Y-11648960D01*
X17572158Y-11648960D02*
X17553110Y-11658484D01*
X17553110Y-11658484D02*
X17534063Y-11658484D01*
X17534063Y-11658484D02*
X17515015Y-11648960D01*
X17515015Y-11648960D02*
X17505491Y-11639436D01*
X17505491Y-11639436D02*
X17495967Y-11620388D01*
X17495967Y-11620388D02*
X17486444Y-11582293D01*
X17486444Y-11582293D02*
X17486444Y-11534674D01*
X17486444Y-11534674D02*
X17495967Y-11496579D01*
X17495967Y-11496579D02*
X17505491Y-11477531D01*
X17505491Y-11477531D02*
X17515015Y-11468008D01*
X17515015Y-11468008D02*
X17534063Y-11458484D01*
X17724539Y-11458484D02*
X17743586Y-11458484D01*
X17743586Y-11458484D02*
X17762634Y-11468008D01*
X17762634Y-11468008D02*
X17772158Y-11477531D01*
X17772158Y-11477531D02*
X17781682Y-11496579D01*
X17781682Y-11496579D02*
X17791205Y-11534674D01*
X17791205Y-11534674D02*
X17791205Y-11582293D01*
X17791205Y-11582293D02*
X17781682Y-11620388D01*
X17781682Y-11620388D02*
X17772158Y-11639436D01*
X17772158Y-11639436D02*
X17762634Y-11648960D01*
X17762634Y-11648960D02*
X17743586Y-11658484D01*
X17743586Y-11658484D02*
X17724539Y-11658484D01*
X17724539Y-11658484D02*
X17705491Y-11648960D01*
X17705491Y-11648960D02*
X17695967Y-11639436D01*
X17695967Y-11639436D02*
X17686444Y-11620388D01*
X17686444Y-11620388D02*
X17676920Y-11582293D01*
X17676920Y-11582293D02*
X17676920Y-11534674D01*
X17676920Y-11534674D02*
X17686444Y-11496579D01*
X17686444Y-11496579D02*
X17695967Y-11477531D01*
X17695967Y-11477531D02*
X17705491Y-11468008D01*
X17705491Y-11468008D02*
X17724539Y-11458484D01*
X17876920Y-11658484D02*
X17876920Y-11525150D01*
X17876920Y-11544198D02*
X17886444Y-11534674D01*
X17886444Y-11534674D02*
X17905491Y-11525150D01*
X17905491Y-11525150D02*
X17934063Y-11525150D01*
X17934063Y-11525150D02*
X17953110Y-11534674D01*
X17953110Y-11534674D02*
X17962634Y-11553722D01*
X17962634Y-11553722D02*
X17962634Y-11658484D01*
X17962634Y-11553722D02*
X17972158Y-11534674D01*
X17972158Y-11534674D02*
X17991205Y-11525150D01*
X17991205Y-11525150D02*
X18019777Y-11525150D01*
X18019777Y-11525150D02*
X18038825Y-11534674D01*
X18038825Y-11534674D02*
X18048348Y-11553722D01*
X18048348Y-11553722D02*
X18048348Y-11658484D01*
X18143586Y-11658484D02*
X18143586Y-11525150D01*
X18143586Y-11544198D02*
X18153110Y-11534674D01*
X18153110Y-11534674D02*
X18172158Y-11525150D01*
X18172158Y-11525150D02*
X18200729Y-11525150D01*
X18200729Y-11525150D02*
X18219777Y-11534674D01*
X18219777Y-11534674D02*
X18229301Y-11553722D01*
X18229301Y-11553722D02*
X18229301Y-11658484D01*
X18229301Y-11553722D02*
X18238825Y-11534674D01*
X18238825Y-11534674D02*
X18257872Y-11525150D01*
X18257872Y-11525150D02*
X18286444Y-11525150D01*
X18286444Y-11525150D02*
X18305491Y-11534674D01*
X18305491Y-11534674D02*
X18315015Y-11553722D01*
X18315015Y-11553722D02*
X18315015Y-11658484D01*
X18705491Y-11448960D02*
X18534063Y-11706103D01*
X18962634Y-11458484D02*
X18981682Y-11458484D01*
X18981682Y-11458484D02*
X19000729Y-11468008D01*
X19000729Y-11468008D02*
X19010253Y-11477531D01*
X19010253Y-11477531D02*
X19019777Y-11496579D01*
X19019777Y-11496579D02*
X19029301Y-11534674D01*
X19029301Y-11534674D02*
X19029301Y-11582293D01*
X19029301Y-11582293D02*
X19019777Y-11620388D01*
X19019777Y-11620388D02*
X19010253Y-11639436D01*
X19010253Y-11639436D02*
X19000729Y-11648960D01*
X19000729Y-11648960D02*
X18981682Y-11658484D01*
X18981682Y-11658484D02*
X18962634Y-11658484D01*
X18962634Y-11658484D02*
X18943587Y-11648960D01*
X18943587Y-11648960D02*
X18934063Y-11639436D01*
X18934063Y-11639436D02*
X18924539Y-11620388D01*
X18924539Y-11620388D02*
X18915015Y-11582293D01*
X18915015Y-11582293D02*
X18915015Y-11534674D01*
X18915015Y-11534674D02*
X18924539Y-11496579D01*
X18924539Y-11496579D02*
X18934063Y-11477531D01*
X18934063Y-11477531D02*
X18943587Y-11468008D01*
X18943587Y-11468008D02*
X18962634Y-11458484D01*
X19115015Y-11639436D02*
X19124539Y-11648960D01*
X19124539Y-11648960D02*
X19115015Y-11658484D01*
X19115015Y-11658484D02*
X19105491Y-11648960D01*
X19105491Y-11648960D02*
X19115015Y-11639436D01*
X19115015Y-11639436D02*
X19115015Y-11658484D01*
X19248348Y-11458484D02*
X19267396Y-11458484D01*
X19267396Y-11458484D02*
X19286444Y-11468008D01*
X19286444Y-11468008D02*
X19295968Y-11477531D01*
X19295968Y-11477531D02*
X19305491Y-11496579D01*
X19305491Y-11496579D02*
X19315015Y-11534674D01*
X19315015Y-11534674D02*
X19315015Y-11582293D01*
X19315015Y-11582293D02*
X19305491Y-11620388D01*
X19305491Y-11620388D02*
X19295968Y-11639436D01*
X19295968Y-11639436D02*
X19286444Y-11648960D01*
X19286444Y-11648960D02*
X19267396Y-11658484D01*
X19267396Y-11658484D02*
X19248348Y-11658484D01*
X19248348Y-11658484D02*
X19229301Y-11648960D01*
X19229301Y-11648960D02*
X19219777Y-11639436D01*
X19219777Y-11639436D02*
X19210253Y-11620388D01*
X19210253Y-11620388D02*
X19200729Y-11582293D01*
X19200729Y-11582293D02*
X19200729Y-11534674D01*
X19200729Y-11534674D02*
X19210253Y-11496579D01*
X19210253Y-11496579D02*
X19219777Y-11477531D01*
X19219777Y-11477531D02*
X19229301Y-11468008D01*
X19229301Y-11468008D02*
X19248348Y-11458484D01*
X19381682Y-11458484D02*
X19505491Y-11458484D01*
X19505491Y-11458484D02*
X19438825Y-11534674D01*
X19438825Y-11534674D02*
X19467396Y-11534674D01*
X19467396Y-11534674D02*
X19486444Y-11544198D01*
X19486444Y-11544198D02*
X19495968Y-11553722D01*
X19495968Y-11553722D02*
X19505491Y-11572769D01*
X19505491Y-11572769D02*
X19505491Y-11620388D01*
X19505491Y-11620388D02*
X19495968Y-11639436D01*
X19495968Y-11639436D02*
X19486444Y-11648960D01*
X19486444Y-11648960D02*
X19467396Y-11658484D01*
X19467396Y-11658484D02*
X19410253Y-11658484D01*
X19410253Y-11658484D02*
X19391206Y-11648960D01*
X19391206Y-11648960D02*
X19381682Y-11639436D01*
X19686444Y-11458484D02*
X19591206Y-11458484D01*
X19591206Y-11458484D02*
X19581682Y-11553722D01*
X19581682Y-11553722D02*
X19591206Y-11544198D01*
X19591206Y-11544198D02*
X19610253Y-11534674D01*
X19610253Y-11534674D02*
X19657872Y-11534674D01*
X19657872Y-11534674D02*
X19676920Y-11544198D01*
X19676920Y-11544198D02*
X19686444Y-11553722D01*
X19686444Y-11553722D02*
X19695968Y-11572769D01*
X19695968Y-11572769D02*
X19695968Y-11620388D01*
X19695968Y-11620388D02*
X19686444Y-11639436D01*
X19686444Y-11639436D02*
X19676920Y-11648960D01*
X19676920Y-11648960D02*
X19657872Y-11658484D01*
X19657872Y-11658484D02*
X19610253Y-11658484D01*
X19610253Y-11658484D02*
X19591206Y-11648960D01*
X19591206Y-11648960D02*
X19581682Y-11639436D01*
X19867396Y-11525150D02*
X19867396Y-11658484D01*
X19819777Y-11448960D02*
X19772158Y-11591817D01*
X19772158Y-11591817D02*
X19895968Y-11591817D01*
X19962634Y-11458484D02*
X19962634Y-11496579D01*
X20038825Y-11458484D02*
X20038825Y-11496579D01*
X20334063Y-11734674D02*
X20324539Y-11725150D01*
X20324539Y-11725150D02*
X20305491Y-11696579D01*
X20305491Y-11696579D02*
X20295968Y-11677531D01*
X20295968Y-11677531D02*
X20286444Y-11648960D01*
X20286444Y-11648960D02*
X20276920Y-11601341D01*
X20276920Y-11601341D02*
X20276920Y-11563246D01*
X20276920Y-11563246D02*
X20286444Y-11515627D01*
X20286444Y-11515627D02*
X20295968Y-11487055D01*
X20295968Y-11487055D02*
X20305491Y-11468008D01*
X20305491Y-11468008D02*
X20324539Y-11439436D01*
X20324539Y-11439436D02*
X20334063Y-11429912D01*
X20495968Y-11525150D02*
X20495968Y-11658484D01*
X20448349Y-11448960D02*
X20400730Y-11591817D01*
X20400730Y-11591817D02*
X20524539Y-11591817D01*
X20753111Y-11658484D02*
X20753111Y-11458484D01*
X20838825Y-11658484D02*
X20838825Y-11553722D01*
X20838825Y-11553722D02*
X20829301Y-11534674D01*
X20829301Y-11534674D02*
X20810253Y-11525150D01*
X20810253Y-11525150D02*
X20781682Y-11525150D01*
X20781682Y-11525150D02*
X20762634Y-11534674D01*
X20762634Y-11534674D02*
X20753111Y-11544198D01*
X20962634Y-11658484D02*
X20943587Y-11648960D01*
X20943587Y-11648960D02*
X20934063Y-11639436D01*
X20934063Y-11639436D02*
X20924539Y-11620388D01*
X20924539Y-11620388D02*
X20924539Y-11563246D01*
X20924539Y-11563246D02*
X20934063Y-11544198D01*
X20934063Y-11544198D02*
X20943587Y-11534674D01*
X20943587Y-11534674D02*
X20962634Y-11525150D01*
X20962634Y-11525150D02*
X20991206Y-11525150D01*
X20991206Y-11525150D02*
X21010253Y-11534674D01*
X21010253Y-11534674D02*
X21019777Y-11544198D01*
X21019777Y-11544198D02*
X21029301Y-11563246D01*
X21029301Y-11563246D02*
X21029301Y-11620388D01*
X21029301Y-11620388D02*
X21019777Y-11639436D01*
X21019777Y-11639436D02*
X21010253Y-11648960D01*
X21010253Y-11648960D02*
X20991206Y-11658484D01*
X20991206Y-11658484D02*
X20962634Y-11658484D01*
X21143587Y-11658484D02*
X21124539Y-11648960D01*
X21124539Y-11648960D02*
X21115015Y-11629912D01*
X21115015Y-11629912D02*
X21115015Y-11458484D01*
X21295968Y-11648960D02*
X21276920Y-11658484D01*
X21276920Y-11658484D02*
X21238825Y-11658484D01*
X21238825Y-11658484D02*
X21219777Y-11648960D01*
X21219777Y-11648960D02*
X21210253Y-11629912D01*
X21210253Y-11629912D02*
X21210253Y-11553722D01*
X21210253Y-11553722D02*
X21219777Y-11534674D01*
X21219777Y-11534674D02*
X21238825Y-11525150D01*
X21238825Y-11525150D02*
X21276920Y-11525150D01*
X21276920Y-11525150D02*
X21295968Y-11534674D01*
X21295968Y-11534674D02*
X21305492Y-11553722D01*
X21305492Y-11553722D02*
X21305492Y-11572769D01*
X21305492Y-11572769D02*
X21210253Y-11591817D01*
X21381682Y-11648960D02*
X21400730Y-11658484D01*
X21400730Y-11658484D02*
X21438825Y-11658484D01*
X21438825Y-11658484D02*
X21457873Y-11648960D01*
X21457873Y-11648960D02*
X21467396Y-11629912D01*
X21467396Y-11629912D02*
X21467396Y-11620388D01*
X21467396Y-11620388D02*
X21457873Y-11601341D01*
X21457873Y-11601341D02*
X21438825Y-11591817D01*
X21438825Y-11591817D02*
X21410253Y-11591817D01*
X21410253Y-11591817D02*
X21391206Y-11582293D01*
X21391206Y-11582293D02*
X21381682Y-11563246D01*
X21381682Y-11563246D02*
X21381682Y-11553722D01*
X21381682Y-11553722D02*
X21391206Y-11534674D01*
X21391206Y-11534674D02*
X21410253Y-11525150D01*
X21410253Y-11525150D02*
X21438825Y-11525150D01*
X21438825Y-11525150D02*
X21457873Y-11534674D01*
X21534063Y-11734674D02*
X21543587Y-11725150D01*
X21543587Y-11725150D02*
X21562634Y-11696579D01*
X21562634Y-11696579D02*
X21572158Y-11677531D01*
X21572158Y-11677531D02*
X21581682Y-11648960D01*
X21581682Y-11648960D02*
X21591206Y-11601341D01*
X21591206Y-11601341D02*
X21591206Y-11563246D01*
X21591206Y-11563246D02*
X21581682Y-11515627D01*
X21581682Y-11515627D02*
X21572158Y-11487055D01*
X21572158Y-11487055D02*
X21562634Y-11468008D01*
X21562634Y-11468008D02*
X21543587Y-11439436D01*
X21543587Y-11439436D02*
X21534063Y-11429912D01*
D10*
X16759000Y-11831000D02*
G75*
G03*
X16759000Y-11831000I-50000J0D01*
G01*
D11*
X17124539Y-11922484D02*
X17010253Y-11922484D01*
X17067396Y-11922484D02*
X17067396Y-11722484D01*
X17067396Y-11722484D02*
X17048348Y-11751055D01*
X17048348Y-11751055D02*
X17029301Y-11770103D01*
X17029301Y-11770103D02*
X17010253Y-11779627D01*
X17210253Y-11903436D02*
X17219777Y-11912960D01*
X17219777Y-11912960D02*
X17210253Y-11922484D01*
X17210253Y-11922484D02*
X17200729Y-11912960D01*
X17200729Y-11912960D02*
X17210253Y-11903436D01*
X17210253Y-11903436D02*
X17210253Y-11922484D01*
X17343586Y-11722484D02*
X17362634Y-11722484D01*
X17362634Y-11722484D02*
X17381682Y-11732008D01*
X17381682Y-11732008D02*
X17391205Y-11741531D01*
X17391205Y-11741531D02*
X17400729Y-11760579D01*
X17400729Y-11760579D02*
X17410253Y-11798674D01*
X17410253Y-11798674D02*
X17410253Y-11846293D01*
X17410253Y-11846293D02*
X17400729Y-11884388D01*
X17400729Y-11884388D02*
X17391205Y-11903436D01*
X17391205Y-11903436D02*
X17381682Y-11912960D01*
X17381682Y-11912960D02*
X17362634Y-11922484D01*
X17362634Y-11922484D02*
X17343586Y-11922484D01*
X17343586Y-11922484D02*
X17324539Y-11912960D01*
X17324539Y-11912960D02*
X17315015Y-11903436D01*
X17315015Y-11903436D02*
X17305491Y-11884388D01*
X17305491Y-11884388D02*
X17295967Y-11846293D01*
X17295967Y-11846293D02*
X17295967Y-11798674D01*
X17295967Y-11798674D02*
X17305491Y-11760579D01*
X17305491Y-11760579D02*
X17315015Y-11741531D01*
X17315015Y-11741531D02*
X17324539Y-11732008D01*
X17324539Y-11732008D02*
X17343586Y-11722484D01*
X17534063Y-11722484D02*
X17553110Y-11722484D01*
X17553110Y-11722484D02*
X17572158Y-11732008D01*
X17572158Y-11732008D02*
X17581682Y-11741531D01*
X17581682Y-11741531D02*
X17591205Y-11760579D01*
X17591205Y-11760579D02*
X17600729Y-11798674D01*
X17600729Y-11798674D02*
X17600729Y-11846293D01*
X17600729Y-11846293D02*
X17591205Y-11884388D01*
X17591205Y-11884388D02*
X17581682Y-11903436D01*
X17581682Y-11903436D02*
X17572158Y-11912960D01*
X17572158Y-11912960D02*
X17553110Y-11922484D01*
X17553110Y-11922484D02*
X17534063Y-11922484D01*
X17534063Y-11922484D02*
X17515015Y-11912960D01*
X17515015Y-11912960D02*
X17505491Y-11903436D01*
X17505491Y-11903436D02*
X17495967Y-11884388D01*
X17495967Y-11884388D02*
X17486444Y-11846293D01*
X17486444Y-11846293D02*
X17486444Y-11798674D01*
X17486444Y-11798674D02*
X17495967Y-11760579D01*
X17495967Y-11760579D02*
X17505491Y-11741531D01*
X17505491Y-11741531D02*
X17515015Y-11732008D01*
X17515015Y-11732008D02*
X17534063Y-11722484D01*
X17724539Y-11722484D02*
X17743586Y-11722484D01*
X17743586Y-11722484D02*
X17762634Y-11732008D01*
X17762634Y-11732008D02*
X17772158Y-11741531D01*
X17772158Y-11741531D02*
X17781682Y-11760579D01*
X17781682Y-11760579D02*
X17791205Y-11798674D01*
X17791205Y-11798674D02*
X17791205Y-11846293D01*
X17791205Y-11846293D02*
X17781682Y-11884388D01*
X17781682Y-11884388D02*
X17772158Y-11903436D01*
X17772158Y-11903436D02*
X17762634Y-11912960D01*
X17762634Y-11912960D02*
X17743586Y-11922484D01*
X17743586Y-11922484D02*
X17724539Y-11922484D01*
X17724539Y-11922484D02*
X17705491Y-11912960D01*
X17705491Y-11912960D02*
X17695967Y-11903436D01*
X17695967Y-11903436D02*
X17686444Y-11884388D01*
X17686444Y-11884388D02*
X17676920Y-11846293D01*
X17676920Y-11846293D02*
X17676920Y-11798674D01*
X17676920Y-11798674D02*
X17686444Y-11760579D01*
X17686444Y-11760579D02*
X17695967Y-11741531D01*
X17695967Y-11741531D02*
X17705491Y-11732008D01*
X17705491Y-11732008D02*
X17724539Y-11722484D01*
X17876920Y-11922484D02*
X17876920Y-11789150D01*
X17876920Y-11808198D02*
X17886444Y-11798674D01*
X17886444Y-11798674D02*
X17905491Y-11789150D01*
X17905491Y-11789150D02*
X17934063Y-11789150D01*
X17934063Y-11789150D02*
X17953110Y-11798674D01*
X17953110Y-11798674D02*
X17962634Y-11817722D01*
X17962634Y-11817722D02*
X17962634Y-11922484D01*
X17962634Y-11817722D02*
X17972158Y-11798674D01*
X17972158Y-11798674D02*
X17991205Y-11789150D01*
X17991205Y-11789150D02*
X18019777Y-11789150D01*
X18019777Y-11789150D02*
X18038825Y-11798674D01*
X18038825Y-11798674D02*
X18048348Y-11817722D01*
X18048348Y-11817722D02*
X18048348Y-11922484D01*
X18143586Y-11922484D02*
X18143586Y-11789150D01*
X18143586Y-11808198D02*
X18153110Y-11798674D01*
X18153110Y-11798674D02*
X18172158Y-11789150D01*
X18172158Y-11789150D02*
X18200729Y-11789150D01*
X18200729Y-11789150D02*
X18219777Y-11798674D01*
X18219777Y-11798674D02*
X18229301Y-11817722D01*
X18229301Y-11817722D02*
X18229301Y-11922484D01*
X18229301Y-11817722D02*
X18238825Y-11798674D01*
X18238825Y-11798674D02*
X18257872Y-11789150D01*
X18257872Y-11789150D02*
X18286444Y-11789150D01*
X18286444Y-11789150D02*
X18305491Y-11798674D01*
X18305491Y-11798674D02*
X18315015Y-11817722D01*
X18315015Y-11817722D02*
X18315015Y-11922484D01*
X18705491Y-11712960D02*
X18534063Y-11970103D01*
X18962634Y-11722484D02*
X18981682Y-11722484D01*
X18981682Y-11722484D02*
X19000729Y-11732008D01*
X19000729Y-11732008D02*
X19010253Y-11741531D01*
X19010253Y-11741531D02*
X19019777Y-11760579D01*
X19019777Y-11760579D02*
X19029301Y-11798674D01*
X19029301Y-11798674D02*
X19029301Y-11846293D01*
X19029301Y-11846293D02*
X19019777Y-11884388D01*
X19019777Y-11884388D02*
X19010253Y-11903436D01*
X19010253Y-11903436D02*
X19000729Y-11912960D01*
X19000729Y-11912960D02*
X18981682Y-11922484D01*
X18981682Y-11922484D02*
X18962634Y-11922484D01*
X18962634Y-11922484D02*
X18943587Y-11912960D01*
X18943587Y-11912960D02*
X18934063Y-11903436D01*
X18934063Y-11903436D02*
X18924539Y-11884388D01*
X18924539Y-11884388D02*
X18915015Y-11846293D01*
X18915015Y-11846293D02*
X18915015Y-11798674D01*
X18915015Y-11798674D02*
X18924539Y-11760579D01*
X18924539Y-11760579D02*
X18934063Y-11741531D01*
X18934063Y-11741531D02*
X18943587Y-11732008D01*
X18943587Y-11732008D02*
X18962634Y-11722484D01*
X19115015Y-11903436D02*
X19124539Y-11912960D01*
X19124539Y-11912960D02*
X19115015Y-11922484D01*
X19115015Y-11922484D02*
X19105491Y-11912960D01*
X19105491Y-11912960D02*
X19115015Y-11903436D01*
X19115015Y-11903436D02*
X19115015Y-11922484D01*
X19248348Y-11722484D02*
X19267396Y-11722484D01*
X19267396Y-11722484D02*
X19286444Y-11732008D01*
X19286444Y-11732008D02*
X19295968Y-11741531D01*
X19295968Y-11741531D02*
X19305491Y-11760579D01*
X19305491Y-11760579D02*
X19315015Y-11798674D01*
X19315015Y-11798674D02*
X19315015Y-11846293D01*
X19315015Y-11846293D02*
X19305491Y-11884388D01*
X19305491Y-11884388D02*
X19295968Y-11903436D01*
X19295968Y-11903436D02*
X19286444Y-11912960D01*
X19286444Y-11912960D02*
X19267396Y-11922484D01*
X19267396Y-11922484D02*
X19248348Y-11922484D01*
X19248348Y-11922484D02*
X19229301Y-11912960D01*
X19229301Y-11912960D02*
X19219777Y-11903436D01*
X19219777Y-11903436D02*
X19210253Y-11884388D01*
X19210253Y-11884388D02*
X19200729Y-11846293D01*
X19200729Y-11846293D02*
X19200729Y-11798674D01*
X19200729Y-11798674D02*
X19210253Y-11760579D01*
X19210253Y-11760579D02*
X19219777Y-11741531D01*
X19219777Y-11741531D02*
X19229301Y-11732008D01*
X19229301Y-11732008D02*
X19248348Y-11722484D01*
X19381682Y-11722484D02*
X19505491Y-11722484D01*
X19505491Y-11722484D02*
X19438825Y-11798674D01*
X19438825Y-11798674D02*
X19467396Y-11798674D01*
X19467396Y-11798674D02*
X19486444Y-11808198D01*
X19486444Y-11808198D02*
X19495968Y-11817722D01*
X19495968Y-11817722D02*
X19505491Y-11836769D01*
X19505491Y-11836769D02*
X19505491Y-11884388D01*
X19505491Y-11884388D02*
X19495968Y-11903436D01*
X19495968Y-11903436D02*
X19486444Y-11912960D01*
X19486444Y-11912960D02*
X19467396Y-11922484D01*
X19467396Y-11922484D02*
X19410253Y-11922484D01*
X19410253Y-11922484D02*
X19391206Y-11912960D01*
X19391206Y-11912960D02*
X19381682Y-11903436D01*
X19600729Y-11922484D02*
X19638825Y-11922484D01*
X19638825Y-11922484D02*
X19657872Y-11912960D01*
X19657872Y-11912960D02*
X19667396Y-11903436D01*
X19667396Y-11903436D02*
X19686444Y-11874865D01*
X19686444Y-11874865D02*
X19695968Y-11836769D01*
X19695968Y-11836769D02*
X19695968Y-11760579D01*
X19695968Y-11760579D02*
X19686444Y-11741531D01*
X19686444Y-11741531D02*
X19676920Y-11732008D01*
X19676920Y-11732008D02*
X19657872Y-11722484D01*
X19657872Y-11722484D02*
X19619777Y-11722484D01*
X19619777Y-11722484D02*
X19600729Y-11732008D01*
X19600729Y-11732008D02*
X19591206Y-11741531D01*
X19591206Y-11741531D02*
X19581682Y-11760579D01*
X19581682Y-11760579D02*
X19581682Y-11808198D01*
X19581682Y-11808198D02*
X19591206Y-11827246D01*
X19591206Y-11827246D02*
X19600729Y-11836769D01*
X19600729Y-11836769D02*
X19619777Y-11846293D01*
X19619777Y-11846293D02*
X19657872Y-11846293D01*
X19657872Y-11846293D02*
X19676920Y-11836769D01*
X19676920Y-11836769D02*
X19686444Y-11827246D01*
X19686444Y-11827246D02*
X19695968Y-11808198D01*
X19867396Y-11789150D02*
X19867396Y-11922484D01*
X19819777Y-11712960D02*
X19772158Y-11855817D01*
X19772158Y-11855817D02*
X19895968Y-11855817D01*
X19962634Y-11722484D02*
X19962634Y-11760579D01*
X20038825Y-11722484D02*
X20038825Y-11760579D01*
X20334063Y-11998674D02*
X20324539Y-11989150D01*
X20324539Y-11989150D02*
X20305491Y-11960579D01*
X20305491Y-11960579D02*
X20295968Y-11941531D01*
X20295968Y-11941531D02*
X20286444Y-11912960D01*
X20286444Y-11912960D02*
X20276920Y-11865341D01*
X20276920Y-11865341D02*
X20276920Y-11827246D01*
X20276920Y-11827246D02*
X20286444Y-11779627D01*
X20286444Y-11779627D02*
X20295968Y-11751055D01*
X20295968Y-11751055D02*
X20305491Y-11732008D01*
X20305491Y-11732008D02*
X20324539Y-11703436D01*
X20324539Y-11703436D02*
X20334063Y-11693912D01*
X20515015Y-11922484D02*
X20400730Y-11922484D01*
X20457872Y-11922484D02*
X20457872Y-11722484D01*
X20457872Y-11722484D02*
X20438825Y-11751055D01*
X20438825Y-11751055D02*
X20419777Y-11770103D01*
X20419777Y-11770103D02*
X20400730Y-11779627D01*
X20705491Y-11922484D02*
X20591206Y-11922484D01*
X20648349Y-11922484D02*
X20648349Y-11722484D01*
X20648349Y-11722484D02*
X20629301Y-11751055D01*
X20629301Y-11751055D02*
X20610253Y-11770103D01*
X20610253Y-11770103D02*
X20591206Y-11779627D01*
X20943587Y-11922484D02*
X20943587Y-11722484D01*
X21029301Y-11922484D02*
X21029301Y-11817722D01*
X21029301Y-11817722D02*
X21019777Y-11798674D01*
X21019777Y-11798674D02*
X21000730Y-11789150D01*
X21000730Y-11789150D02*
X20972158Y-11789150D01*
X20972158Y-11789150D02*
X20953111Y-11798674D01*
X20953111Y-11798674D02*
X20943587Y-11808198D01*
X21153111Y-11922484D02*
X21134063Y-11912960D01*
X21134063Y-11912960D02*
X21124539Y-11903436D01*
X21124539Y-11903436D02*
X21115015Y-11884388D01*
X21115015Y-11884388D02*
X21115015Y-11827246D01*
X21115015Y-11827246D02*
X21124539Y-11808198D01*
X21124539Y-11808198D02*
X21134063Y-11798674D01*
X21134063Y-11798674D02*
X21153111Y-11789150D01*
X21153111Y-11789150D02*
X21181682Y-11789150D01*
X21181682Y-11789150D02*
X21200730Y-11798674D01*
X21200730Y-11798674D02*
X21210253Y-11808198D01*
X21210253Y-11808198D02*
X21219777Y-11827246D01*
X21219777Y-11827246D02*
X21219777Y-11884388D01*
X21219777Y-11884388D02*
X21210253Y-11903436D01*
X21210253Y-11903436D02*
X21200730Y-11912960D01*
X21200730Y-11912960D02*
X21181682Y-11922484D01*
X21181682Y-11922484D02*
X21153111Y-11922484D01*
X21334063Y-11922484D02*
X21315015Y-11912960D01*
X21315015Y-11912960D02*
X21305492Y-11893912D01*
X21305492Y-11893912D02*
X21305492Y-11722484D01*
X21486444Y-11912960D02*
X21467396Y-11922484D01*
X21467396Y-11922484D02*
X21429301Y-11922484D01*
X21429301Y-11922484D02*
X21410253Y-11912960D01*
X21410253Y-11912960D02*
X21400730Y-11893912D01*
X21400730Y-11893912D02*
X21400730Y-11817722D01*
X21400730Y-11817722D02*
X21410253Y-11798674D01*
X21410253Y-11798674D02*
X21429301Y-11789150D01*
X21429301Y-11789150D02*
X21467396Y-11789150D01*
X21467396Y-11789150D02*
X21486444Y-11798674D01*
X21486444Y-11798674D02*
X21495968Y-11817722D01*
X21495968Y-11817722D02*
X21495968Y-11836769D01*
X21495968Y-11836769D02*
X21400730Y-11855817D01*
X21572158Y-11912960D02*
X21591206Y-11922484D01*
X21591206Y-11922484D02*
X21629301Y-11922484D01*
X21629301Y-11922484D02*
X21648349Y-11912960D01*
X21648349Y-11912960D02*
X21657873Y-11893912D01*
X21657873Y-11893912D02*
X21657873Y-11884388D01*
X21657873Y-11884388D02*
X21648349Y-11865341D01*
X21648349Y-11865341D02*
X21629301Y-11855817D01*
X21629301Y-11855817D02*
X21600730Y-11855817D01*
X21600730Y-11855817D02*
X21581682Y-11846293D01*
X21581682Y-11846293D02*
X21572158Y-11827246D01*
X21572158Y-11827246D02*
X21572158Y-11817722D01*
X21572158Y-11817722D02*
X21581682Y-11798674D01*
X21581682Y-11798674D02*
X21600730Y-11789150D01*
X21600730Y-11789150D02*
X21629301Y-11789150D01*
X21629301Y-11789150D02*
X21648349Y-11798674D01*
X21724539Y-11998674D02*
X21734063Y-11989150D01*
X21734063Y-11989150D02*
X21753111Y-11960579D01*
X21753111Y-11960579D02*
X21762634Y-11941531D01*
X21762634Y-11941531D02*
X21772158Y-11912960D01*
X21772158Y-11912960D02*
X21781682Y-11865341D01*
X21781682Y-11865341D02*
X21781682Y-11827246D01*
X21781682Y-11827246D02*
X21772158Y-11779627D01*
X21772158Y-11779627D02*
X21762634Y-11751055D01*
X21762634Y-11751055D02*
X21753111Y-11732008D01*
X21753111Y-11732008D02*
X21734063Y-11703436D01*
X21734063Y-11703436D02*
X21724539Y-11693912D01*
D13*
X16708000Y-12044000D02*
X16708000Y-12146000D01*
X16657000Y-12095000D02*
X16759000Y-12095000D01*
D11*
X17124539Y-12186484D02*
X17010253Y-12186484D01*
X17067396Y-12186484D02*
X17067396Y-11986484D01*
X17067396Y-11986484D02*
X17048348Y-12015055D01*
X17048348Y-12015055D02*
X17029301Y-12034103D01*
X17029301Y-12034103D02*
X17010253Y-12043627D01*
X17210253Y-12167436D02*
X17219777Y-12176960D01*
X17219777Y-12176960D02*
X17210253Y-12186484D01*
X17210253Y-12186484D02*
X17200729Y-12176960D01*
X17200729Y-12176960D02*
X17210253Y-12167436D01*
X17210253Y-12167436D02*
X17210253Y-12186484D01*
X17343586Y-11986484D02*
X17362634Y-11986484D01*
X17362634Y-11986484D02*
X17381682Y-11996008D01*
X17381682Y-11996008D02*
X17391205Y-12005531D01*
X17391205Y-12005531D02*
X17400729Y-12024579D01*
X17400729Y-12024579D02*
X17410253Y-12062674D01*
X17410253Y-12062674D02*
X17410253Y-12110293D01*
X17410253Y-12110293D02*
X17400729Y-12148388D01*
X17400729Y-12148388D02*
X17391205Y-12167436D01*
X17391205Y-12167436D02*
X17381682Y-12176960D01*
X17381682Y-12176960D02*
X17362634Y-12186484D01*
X17362634Y-12186484D02*
X17343586Y-12186484D01*
X17343586Y-12186484D02*
X17324539Y-12176960D01*
X17324539Y-12176960D02*
X17315015Y-12167436D01*
X17315015Y-12167436D02*
X17305491Y-12148388D01*
X17305491Y-12148388D02*
X17295967Y-12110293D01*
X17295967Y-12110293D02*
X17295967Y-12062674D01*
X17295967Y-12062674D02*
X17305491Y-12024579D01*
X17305491Y-12024579D02*
X17315015Y-12005531D01*
X17315015Y-12005531D02*
X17324539Y-11996008D01*
X17324539Y-11996008D02*
X17343586Y-11986484D01*
X17486444Y-12005531D02*
X17495967Y-11996008D01*
X17495967Y-11996008D02*
X17515015Y-11986484D01*
X17515015Y-11986484D02*
X17562634Y-11986484D01*
X17562634Y-11986484D02*
X17581682Y-11996008D01*
X17581682Y-11996008D02*
X17591205Y-12005531D01*
X17591205Y-12005531D02*
X17600729Y-12024579D01*
X17600729Y-12024579D02*
X17600729Y-12043627D01*
X17600729Y-12043627D02*
X17591205Y-12072198D01*
X17591205Y-12072198D02*
X17476920Y-12186484D01*
X17476920Y-12186484D02*
X17600729Y-12186484D01*
X17724539Y-11986484D02*
X17743586Y-11986484D01*
X17743586Y-11986484D02*
X17762634Y-11996008D01*
X17762634Y-11996008D02*
X17772158Y-12005531D01*
X17772158Y-12005531D02*
X17781682Y-12024579D01*
X17781682Y-12024579D02*
X17791205Y-12062674D01*
X17791205Y-12062674D02*
X17791205Y-12110293D01*
X17791205Y-12110293D02*
X17781682Y-12148388D01*
X17781682Y-12148388D02*
X17772158Y-12167436D01*
X17772158Y-12167436D02*
X17762634Y-12176960D01*
X17762634Y-12176960D02*
X17743586Y-12186484D01*
X17743586Y-12186484D02*
X17724539Y-12186484D01*
X17724539Y-12186484D02*
X17705491Y-12176960D01*
X17705491Y-12176960D02*
X17695967Y-12167436D01*
X17695967Y-12167436D02*
X17686444Y-12148388D01*
X17686444Y-12148388D02*
X17676920Y-12110293D01*
X17676920Y-12110293D02*
X17676920Y-12062674D01*
X17676920Y-12062674D02*
X17686444Y-12024579D01*
X17686444Y-12024579D02*
X17695967Y-12005531D01*
X17695967Y-12005531D02*
X17705491Y-11996008D01*
X17705491Y-11996008D02*
X17724539Y-11986484D01*
X17876920Y-12186484D02*
X17876920Y-12053150D01*
X17876920Y-12072198D02*
X17886444Y-12062674D01*
X17886444Y-12062674D02*
X17905491Y-12053150D01*
X17905491Y-12053150D02*
X17934063Y-12053150D01*
X17934063Y-12053150D02*
X17953110Y-12062674D01*
X17953110Y-12062674D02*
X17962634Y-12081722D01*
X17962634Y-12081722D02*
X17962634Y-12186484D01*
X17962634Y-12081722D02*
X17972158Y-12062674D01*
X17972158Y-12062674D02*
X17991205Y-12053150D01*
X17991205Y-12053150D02*
X18019777Y-12053150D01*
X18019777Y-12053150D02*
X18038825Y-12062674D01*
X18038825Y-12062674D02*
X18048348Y-12081722D01*
X18048348Y-12081722D02*
X18048348Y-12186484D01*
X18143586Y-12186484D02*
X18143586Y-12053150D01*
X18143586Y-12072198D02*
X18153110Y-12062674D01*
X18153110Y-12062674D02*
X18172158Y-12053150D01*
X18172158Y-12053150D02*
X18200729Y-12053150D01*
X18200729Y-12053150D02*
X18219777Y-12062674D01*
X18219777Y-12062674D02*
X18229301Y-12081722D01*
X18229301Y-12081722D02*
X18229301Y-12186484D01*
X18229301Y-12081722D02*
X18238825Y-12062674D01*
X18238825Y-12062674D02*
X18257872Y-12053150D01*
X18257872Y-12053150D02*
X18286444Y-12053150D01*
X18286444Y-12053150D02*
X18305491Y-12062674D01*
X18305491Y-12062674D02*
X18315015Y-12081722D01*
X18315015Y-12081722D02*
X18315015Y-12186484D01*
X18705491Y-11976960D02*
X18534063Y-12234103D01*
X18962634Y-11986484D02*
X18981682Y-11986484D01*
X18981682Y-11986484D02*
X19000729Y-11996008D01*
X19000729Y-11996008D02*
X19010253Y-12005531D01*
X19010253Y-12005531D02*
X19019777Y-12024579D01*
X19019777Y-12024579D02*
X19029301Y-12062674D01*
X19029301Y-12062674D02*
X19029301Y-12110293D01*
X19029301Y-12110293D02*
X19019777Y-12148388D01*
X19019777Y-12148388D02*
X19010253Y-12167436D01*
X19010253Y-12167436D02*
X19000729Y-12176960D01*
X19000729Y-12176960D02*
X18981682Y-12186484D01*
X18981682Y-12186484D02*
X18962634Y-12186484D01*
X18962634Y-12186484D02*
X18943587Y-12176960D01*
X18943587Y-12176960D02*
X18934063Y-12167436D01*
X18934063Y-12167436D02*
X18924539Y-12148388D01*
X18924539Y-12148388D02*
X18915015Y-12110293D01*
X18915015Y-12110293D02*
X18915015Y-12062674D01*
X18915015Y-12062674D02*
X18924539Y-12024579D01*
X18924539Y-12024579D02*
X18934063Y-12005531D01*
X18934063Y-12005531D02*
X18943587Y-11996008D01*
X18943587Y-11996008D02*
X18962634Y-11986484D01*
X19115015Y-12167436D02*
X19124539Y-12176960D01*
X19124539Y-12176960D02*
X19115015Y-12186484D01*
X19115015Y-12186484D02*
X19105491Y-12176960D01*
X19105491Y-12176960D02*
X19115015Y-12167436D01*
X19115015Y-12167436D02*
X19115015Y-12186484D01*
X19248348Y-11986484D02*
X19267396Y-11986484D01*
X19267396Y-11986484D02*
X19286444Y-11996008D01*
X19286444Y-11996008D02*
X19295968Y-12005531D01*
X19295968Y-12005531D02*
X19305491Y-12024579D01*
X19305491Y-12024579D02*
X19315015Y-12062674D01*
X19315015Y-12062674D02*
X19315015Y-12110293D01*
X19315015Y-12110293D02*
X19305491Y-12148388D01*
X19305491Y-12148388D02*
X19295968Y-12167436D01*
X19295968Y-12167436D02*
X19286444Y-12176960D01*
X19286444Y-12176960D02*
X19267396Y-12186484D01*
X19267396Y-12186484D02*
X19248348Y-12186484D01*
X19248348Y-12186484D02*
X19229301Y-12176960D01*
X19229301Y-12176960D02*
X19219777Y-12167436D01*
X19219777Y-12167436D02*
X19210253Y-12148388D01*
X19210253Y-12148388D02*
X19200729Y-12110293D01*
X19200729Y-12110293D02*
X19200729Y-12062674D01*
X19200729Y-12062674D02*
X19210253Y-12024579D01*
X19210253Y-12024579D02*
X19219777Y-12005531D01*
X19219777Y-12005531D02*
X19229301Y-11996008D01*
X19229301Y-11996008D02*
X19248348Y-11986484D01*
X19486444Y-12053150D02*
X19486444Y-12186484D01*
X19438825Y-11976960D02*
X19391206Y-12119817D01*
X19391206Y-12119817D02*
X19515015Y-12119817D01*
X19629301Y-11986484D02*
X19648349Y-11986484D01*
X19648349Y-11986484D02*
X19667396Y-11996008D01*
X19667396Y-11996008D02*
X19676920Y-12005531D01*
X19676920Y-12005531D02*
X19686444Y-12024579D01*
X19686444Y-12024579D02*
X19695968Y-12062674D01*
X19695968Y-12062674D02*
X19695968Y-12110293D01*
X19695968Y-12110293D02*
X19686444Y-12148388D01*
X19686444Y-12148388D02*
X19676920Y-12167436D01*
X19676920Y-12167436D02*
X19667396Y-12176960D01*
X19667396Y-12176960D02*
X19648349Y-12186484D01*
X19648349Y-12186484D02*
X19629301Y-12186484D01*
X19629301Y-12186484D02*
X19610253Y-12176960D01*
X19610253Y-12176960D02*
X19600729Y-12167436D01*
X19600729Y-12167436D02*
X19591206Y-12148388D01*
X19591206Y-12148388D02*
X19581682Y-12110293D01*
X19581682Y-12110293D02*
X19581682Y-12062674D01*
X19581682Y-12062674D02*
X19591206Y-12024579D01*
X19591206Y-12024579D02*
X19600729Y-12005531D01*
X19600729Y-12005531D02*
X19610253Y-11996008D01*
X19610253Y-11996008D02*
X19629301Y-11986484D01*
X19772158Y-12005531D02*
X19781682Y-11996008D01*
X19781682Y-11996008D02*
X19800729Y-11986484D01*
X19800729Y-11986484D02*
X19848349Y-11986484D01*
X19848349Y-11986484D02*
X19867396Y-11996008D01*
X19867396Y-11996008D02*
X19876920Y-12005531D01*
X19876920Y-12005531D02*
X19886444Y-12024579D01*
X19886444Y-12024579D02*
X19886444Y-12043627D01*
X19886444Y-12043627D02*
X19876920Y-12072198D01*
X19876920Y-12072198D02*
X19762634Y-12186484D01*
X19762634Y-12186484D02*
X19886444Y-12186484D01*
X19962634Y-11986484D02*
X19962634Y-12024579D01*
X20038825Y-11986484D02*
X20038825Y-12024579D01*
X20334063Y-12262674D02*
X20324539Y-12253150D01*
X20324539Y-12253150D02*
X20305491Y-12224579D01*
X20305491Y-12224579D02*
X20295968Y-12205531D01*
X20295968Y-12205531D02*
X20286444Y-12176960D01*
X20286444Y-12176960D02*
X20276920Y-12129341D01*
X20276920Y-12129341D02*
X20276920Y-12091246D01*
X20276920Y-12091246D02*
X20286444Y-12043627D01*
X20286444Y-12043627D02*
X20295968Y-12015055D01*
X20295968Y-12015055D02*
X20305491Y-11996008D01*
X20305491Y-11996008D02*
X20324539Y-11967436D01*
X20324539Y-11967436D02*
X20334063Y-11957912D01*
X20391206Y-11986484D02*
X20515015Y-11986484D01*
X20515015Y-11986484D02*
X20448349Y-12062674D01*
X20448349Y-12062674D02*
X20476920Y-12062674D01*
X20476920Y-12062674D02*
X20495968Y-12072198D01*
X20495968Y-12072198D02*
X20505491Y-12081722D01*
X20505491Y-12081722D02*
X20515015Y-12100769D01*
X20515015Y-12100769D02*
X20515015Y-12148388D01*
X20515015Y-12148388D02*
X20505491Y-12167436D01*
X20505491Y-12167436D02*
X20495968Y-12176960D01*
X20495968Y-12176960D02*
X20476920Y-12186484D01*
X20476920Y-12186484D02*
X20419777Y-12186484D01*
X20419777Y-12186484D02*
X20400730Y-12176960D01*
X20400730Y-12176960D02*
X20391206Y-12167436D01*
X20638825Y-11986484D02*
X20657872Y-11986484D01*
X20657872Y-11986484D02*
X20676920Y-11996008D01*
X20676920Y-11996008D02*
X20686444Y-12005531D01*
X20686444Y-12005531D02*
X20695968Y-12024579D01*
X20695968Y-12024579D02*
X20705491Y-12062674D01*
X20705491Y-12062674D02*
X20705491Y-12110293D01*
X20705491Y-12110293D02*
X20695968Y-12148388D01*
X20695968Y-12148388D02*
X20686444Y-12167436D01*
X20686444Y-12167436D02*
X20676920Y-12176960D01*
X20676920Y-12176960D02*
X20657872Y-12186484D01*
X20657872Y-12186484D02*
X20638825Y-12186484D01*
X20638825Y-12186484D02*
X20619777Y-12176960D01*
X20619777Y-12176960D02*
X20610253Y-12167436D01*
X20610253Y-12167436D02*
X20600730Y-12148388D01*
X20600730Y-12148388D02*
X20591206Y-12110293D01*
X20591206Y-12110293D02*
X20591206Y-12062674D01*
X20591206Y-12062674D02*
X20600730Y-12024579D01*
X20600730Y-12024579D02*
X20610253Y-12005531D01*
X20610253Y-12005531D02*
X20619777Y-11996008D01*
X20619777Y-11996008D02*
X20638825Y-11986484D01*
X20943587Y-12186484D02*
X20943587Y-11986484D01*
X21029301Y-12186484D02*
X21029301Y-12081722D01*
X21029301Y-12081722D02*
X21019777Y-12062674D01*
X21019777Y-12062674D02*
X21000730Y-12053150D01*
X21000730Y-12053150D02*
X20972158Y-12053150D01*
X20972158Y-12053150D02*
X20953111Y-12062674D01*
X20953111Y-12062674D02*
X20943587Y-12072198D01*
X21153111Y-12186484D02*
X21134063Y-12176960D01*
X21134063Y-12176960D02*
X21124539Y-12167436D01*
X21124539Y-12167436D02*
X21115015Y-12148388D01*
X21115015Y-12148388D02*
X21115015Y-12091246D01*
X21115015Y-12091246D02*
X21124539Y-12072198D01*
X21124539Y-12072198D02*
X21134063Y-12062674D01*
X21134063Y-12062674D02*
X21153111Y-12053150D01*
X21153111Y-12053150D02*
X21181682Y-12053150D01*
X21181682Y-12053150D02*
X21200730Y-12062674D01*
X21200730Y-12062674D02*
X21210253Y-12072198D01*
X21210253Y-12072198D02*
X21219777Y-12091246D01*
X21219777Y-12091246D02*
X21219777Y-12148388D01*
X21219777Y-12148388D02*
X21210253Y-12167436D01*
X21210253Y-12167436D02*
X21200730Y-12176960D01*
X21200730Y-12176960D02*
X21181682Y-12186484D01*
X21181682Y-12186484D02*
X21153111Y-12186484D01*
X21334063Y-12186484D02*
X21315015Y-12176960D01*
X21315015Y-12176960D02*
X21305492Y-12157912D01*
X21305492Y-12157912D02*
X21305492Y-11986484D01*
X21486444Y-12176960D02*
X21467396Y-12186484D01*
X21467396Y-12186484D02*
X21429301Y-12186484D01*
X21429301Y-12186484D02*
X21410253Y-12176960D01*
X21410253Y-12176960D02*
X21400730Y-12157912D01*
X21400730Y-12157912D02*
X21400730Y-12081722D01*
X21400730Y-12081722D02*
X21410253Y-12062674D01*
X21410253Y-12062674D02*
X21429301Y-12053150D01*
X21429301Y-12053150D02*
X21467396Y-12053150D01*
X21467396Y-12053150D02*
X21486444Y-12062674D01*
X21486444Y-12062674D02*
X21495968Y-12081722D01*
X21495968Y-12081722D02*
X21495968Y-12100769D01*
X21495968Y-12100769D02*
X21400730Y-12119817D01*
X21572158Y-12176960D02*
X21591206Y-12186484D01*
X21591206Y-12186484D02*
X21629301Y-12186484D01*
X21629301Y-12186484D02*
X21648349Y-12176960D01*
X21648349Y-12176960D02*
X21657873Y-12157912D01*
X21657873Y-12157912D02*
X21657873Y-12148388D01*
X21657873Y-12148388D02*
X21648349Y-12129341D01*
X21648349Y-12129341D02*
X21629301Y-12119817D01*
X21629301Y-12119817D02*
X21600730Y-12119817D01*
X21600730Y-12119817D02*
X21581682Y-12110293D01*
X21581682Y-12110293D02*
X21572158Y-12091246D01*
X21572158Y-12091246D02*
X21572158Y-12081722D01*
X21572158Y-12081722D02*
X21581682Y-12062674D01*
X21581682Y-12062674D02*
X21600730Y-12053150D01*
X21600730Y-12053150D02*
X21629301Y-12053150D01*
X21629301Y-12053150D02*
X21648349Y-12062674D01*
X21724539Y-12262674D02*
X21734063Y-12253150D01*
X21734063Y-12253150D02*
X21753111Y-12224579D01*
X21753111Y-12224579D02*
X21762634Y-12205531D01*
X21762634Y-12205531D02*
X21772158Y-12176960D01*
X21772158Y-12176960D02*
X21781682Y-12129341D01*
X21781682Y-12129341D02*
X21781682Y-12091246D01*
X21781682Y-12091246D02*
X21772158Y-12043627D01*
X21772158Y-12043627D02*
X21762634Y-12015055D01*
X21762634Y-12015055D02*
X21753111Y-11996008D01*
X21753111Y-11996008D02*
X21734063Y-11967436D01*
X21734063Y-11967436D02*
X21724539Y-11957912D01*
D14*
X16741427Y-12401427D02*
X16741427Y-12316573D01*
X16656573Y-12316573D01*
X16656573Y-12401427D01*
X16741427Y-12401427D01*
D11*
X17124539Y-12450484D02*
X17010253Y-12450484D01*
X17067396Y-12450484D02*
X17067396Y-12250484D01*
X17067396Y-12250484D02*
X17048348Y-12279055D01*
X17048348Y-12279055D02*
X17029301Y-12298103D01*
X17029301Y-12298103D02*
X17010253Y-12307627D01*
X17210253Y-12431436D02*
X17219777Y-12440960D01*
X17219777Y-12440960D02*
X17210253Y-12450484D01*
X17210253Y-12450484D02*
X17200729Y-12440960D01*
X17200729Y-12440960D02*
X17210253Y-12431436D01*
X17210253Y-12431436D02*
X17210253Y-12450484D01*
X17295967Y-12269531D02*
X17305491Y-12260008D01*
X17305491Y-12260008D02*
X17324539Y-12250484D01*
X17324539Y-12250484D02*
X17372158Y-12250484D01*
X17372158Y-12250484D02*
X17391205Y-12260008D01*
X17391205Y-12260008D02*
X17400729Y-12269531D01*
X17400729Y-12269531D02*
X17410253Y-12288579D01*
X17410253Y-12288579D02*
X17410253Y-12307627D01*
X17410253Y-12307627D02*
X17400729Y-12336198D01*
X17400729Y-12336198D02*
X17286444Y-12450484D01*
X17286444Y-12450484D02*
X17410253Y-12450484D01*
X17534063Y-12250484D02*
X17553110Y-12250484D01*
X17553110Y-12250484D02*
X17572158Y-12260008D01*
X17572158Y-12260008D02*
X17581682Y-12269531D01*
X17581682Y-12269531D02*
X17591205Y-12288579D01*
X17591205Y-12288579D02*
X17600729Y-12326674D01*
X17600729Y-12326674D02*
X17600729Y-12374293D01*
X17600729Y-12374293D02*
X17591205Y-12412388D01*
X17591205Y-12412388D02*
X17581682Y-12431436D01*
X17581682Y-12431436D02*
X17572158Y-12440960D01*
X17572158Y-12440960D02*
X17553110Y-12450484D01*
X17553110Y-12450484D02*
X17534063Y-12450484D01*
X17534063Y-12450484D02*
X17515015Y-12440960D01*
X17515015Y-12440960D02*
X17505491Y-12431436D01*
X17505491Y-12431436D02*
X17495967Y-12412388D01*
X17495967Y-12412388D02*
X17486444Y-12374293D01*
X17486444Y-12374293D02*
X17486444Y-12326674D01*
X17486444Y-12326674D02*
X17495967Y-12288579D01*
X17495967Y-12288579D02*
X17505491Y-12269531D01*
X17505491Y-12269531D02*
X17515015Y-12260008D01*
X17515015Y-12260008D02*
X17534063Y-12250484D01*
X17724539Y-12250484D02*
X17743586Y-12250484D01*
X17743586Y-12250484D02*
X17762634Y-12260008D01*
X17762634Y-12260008D02*
X17772158Y-12269531D01*
X17772158Y-12269531D02*
X17781682Y-12288579D01*
X17781682Y-12288579D02*
X17791205Y-12326674D01*
X17791205Y-12326674D02*
X17791205Y-12374293D01*
X17791205Y-12374293D02*
X17781682Y-12412388D01*
X17781682Y-12412388D02*
X17772158Y-12431436D01*
X17772158Y-12431436D02*
X17762634Y-12440960D01*
X17762634Y-12440960D02*
X17743586Y-12450484D01*
X17743586Y-12450484D02*
X17724539Y-12450484D01*
X17724539Y-12450484D02*
X17705491Y-12440960D01*
X17705491Y-12440960D02*
X17695967Y-12431436D01*
X17695967Y-12431436D02*
X17686444Y-12412388D01*
X17686444Y-12412388D02*
X17676920Y-12374293D01*
X17676920Y-12374293D02*
X17676920Y-12326674D01*
X17676920Y-12326674D02*
X17686444Y-12288579D01*
X17686444Y-12288579D02*
X17695967Y-12269531D01*
X17695967Y-12269531D02*
X17705491Y-12260008D01*
X17705491Y-12260008D02*
X17724539Y-12250484D01*
X17876920Y-12450484D02*
X17876920Y-12317150D01*
X17876920Y-12336198D02*
X17886444Y-12326674D01*
X17886444Y-12326674D02*
X17905491Y-12317150D01*
X17905491Y-12317150D02*
X17934063Y-12317150D01*
X17934063Y-12317150D02*
X17953110Y-12326674D01*
X17953110Y-12326674D02*
X17962634Y-12345722D01*
X17962634Y-12345722D02*
X17962634Y-12450484D01*
X17962634Y-12345722D02*
X17972158Y-12326674D01*
X17972158Y-12326674D02*
X17991205Y-12317150D01*
X17991205Y-12317150D02*
X18019777Y-12317150D01*
X18019777Y-12317150D02*
X18038825Y-12326674D01*
X18038825Y-12326674D02*
X18048348Y-12345722D01*
X18048348Y-12345722D02*
X18048348Y-12450484D01*
X18143586Y-12450484D02*
X18143586Y-12317150D01*
X18143586Y-12336198D02*
X18153110Y-12326674D01*
X18153110Y-12326674D02*
X18172158Y-12317150D01*
X18172158Y-12317150D02*
X18200729Y-12317150D01*
X18200729Y-12317150D02*
X18219777Y-12326674D01*
X18219777Y-12326674D02*
X18229301Y-12345722D01*
X18229301Y-12345722D02*
X18229301Y-12450484D01*
X18229301Y-12345722D02*
X18238825Y-12326674D01*
X18238825Y-12326674D02*
X18257872Y-12317150D01*
X18257872Y-12317150D02*
X18286444Y-12317150D01*
X18286444Y-12317150D02*
X18305491Y-12326674D01*
X18305491Y-12326674D02*
X18315015Y-12345722D01*
X18315015Y-12345722D02*
X18315015Y-12450484D01*
X18705491Y-12240960D02*
X18534063Y-12498103D01*
X18962634Y-12250484D02*
X18981682Y-12250484D01*
X18981682Y-12250484D02*
X19000729Y-12260008D01*
X19000729Y-12260008D02*
X19010253Y-12269531D01*
X19010253Y-12269531D02*
X19019777Y-12288579D01*
X19019777Y-12288579D02*
X19029301Y-12326674D01*
X19029301Y-12326674D02*
X19029301Y-12374293D01*
X19029301Y-12374293D02*
X19019777Y-12412388D01*
X19019777Y-12412388D02*
X19010253Y-12431436D01*
X19010253Y-12431436D02*
X19000729Y-12440960D01*
X19000729Y-12440960D02*
X18981682Y-12450484D01*
X18981682Y-12450484D02*
X18962634Y-12450484D01*
X18962634Y-12450484D02*
X18943587Y-12440960D01*
X18943587Y-12440960D02*
X18934063Y-12431436D01*
X18934063Y-12431436D02*
X18924539Y-12412388D01*
X18924539Y-12412388D02*
X18915015Y-12374293D01*
X18915015Y-12374293D02*
X18915015Y-12326674D01*
X18915015Y-12326674D02*
X18924539Y-12288579D01*
X18924539Y-12288579D02*
X18934063Y-12269531D01*
X18934063Y-12269531D02*
X18943587Y-12260008D01*
X18943587Y-12260008D02*
X18962634Y-12250484D01*
X19115015Y-12431436D02*
X19124539Y-12440960D01*
X19124539Y-12440960D02*
X19115015Y-12450484D01*
X19115015Y-12450484D02*
X19105491Y-12440960D01*
X19105491Y-12440960D02*
X19115015Y-12431436D01*
X19115015Y-12431436D02*
X19115015Y-12450484D01*
X19248348Y-12250484D02*
X19267396Y-12250484D01*
X19267396Y-12250484D02*
X19286444Y-12260008D01*
X19286444Y-12260008D02*
X19295968Y-12269531D01*
X19295968Y-12269531D02*
X19305491Y-12288579D01*
X19305491Y-12288579D02*
X19315015Y-12326674D01*
X19315015Y-12326674D02*
X19315015Y-12374293D01*
X19315015Y-12374293D02*
X19305491Y-12412388D01*
X19305491Y-12412388D02*
X19295968Y-12431436D01*
X19295968Y-12431436D02*
X19286444Y-12440960D01*
X19286444Y-12440960D02*
X19267396Y-12450484D01*
X19267396Y-12450484D02*
X19248348Y-12450484D01*
X19248348Y-12450484D02*
X19229301Y-12440960D01*
X19229301Y-12440960D02*
X19219777Y-12431436D01*
X19219777Y-12431436D02*
X19210253Y-12412388D01*
X19210253Y-12412388D02*
X19200729Y-12374293D01*
X19200729Y-12374293D02*
X19200729Y-12326674D01*
X19200729Y-12326674D02*
X19210253Y-12288579D01*
X19210253Y-12288579D02*
X19219777Y-12269531D01*
X19219777Y-12269531D02*
X19229301Y-12260008D01*
X19229301Y-12260008D02*
X19248348Y-12250484D01*
X19486444Y-12317150D02*
X19486444Y-12450484D01*
X19438825Y-12240960D02*
X19391206Y-12383817D01*
X19391206Y-12383817D02*
X19515015Y-12383817D01*
X19572158Y-12250484D02*
X19705491Y-12250484D01*
X19705491Y-12250484D02*
X19619777Y-12450484D01*
X19772158Y-12269531D02*
X19781682Y-12260008D01*
X19781682Y-12260008D02*
X19800729Y-12250484D01*
X19800729Y-12250484D02*
X19848349Y-12250484D01*
X19848349Y-12250484D02*
X19867396Y-12260008D01*
X19867396Y-12260008D02*
X19876920Y-12269531D01*
X19876920Y-12269531D02*
X19886444Y-12288579D01*
X19886444Y-12288579D02*
X19886444Y-12307627D01*
X19886444Y-12307627D02*
X19876920Y-12336198D01*
X19876920Y-12336198D02*
X19762634Y-12450484D01*
X19762634Y-12450484D02*
X19886444Y-12450484D01*
X19962634Y-12250484D02*
X19962634Y-12288579D01*
X20038825Y-12250484D02*
X20038825Y-12288579D01*
X20334063Y-12526674D02*
X20324539Y-12517150D01*
X20324539Y-12517150D02*
X20305491Y-12488579D01*
X20305491Y-12488579D02*
X20295968Y-12469531D01*
X20295968Y-12469531D02*
X20286444Y-12440960D01*
X20286444Y-12440960D02*
X20276920Y-12393341D01*
X20276920Y-12393341D02*
X20276920Y-12355246D01*
X20276920Y-12355246D02*
X20286444Y-12307627D01*
X20286444Y-12307627D02*
X20295968Y-12279055D01*
X20295968Y-12279055D02*
X20305491Y-12260008D01*
X20305491Y-12260008D02*
X20324539Y-12231436D01*
X20324539Y-12231436D02*
X20334063Y-12221912D01*
X20495968Y-12317150D02*
X20495968Y-12450484D01*
X20448349Y-12240960D02*
X20400730Y-12383817D01*
X20400730Y-12383817D02*
X20524539Y-12383817D01*
X20753111Y-12450484D02*
X20753111Y-12250484D01*
X20838825Y-12450484D02*
X20838825Y-12345722D01*
X20838825Y-12345722D02*
X20829301Y-12326674D01*
X20829301Y-12326674D02*
X20810253Y-12317150D01*
X20810253Y-12317150D02*
X20781682Y-12317150D01*
X20781682Y-12317150D02*
X20762634Y-12326674D01*
X20762634Y-12326674D02*
X20753111Y-12336198D01*
X20962634Y-12450484D02*
X20943587Y-12440960D01*
X20943587Y-12440960D02*
X20934063Y-12431436D01*
X20934063Y-12431436D02*
X20924539Y-12412388D01*
X20924539Y-12412388D02*
X20924539Y-12355246D01*
X20924539Y-12355246D02*
X20934063Y-12336198D01*
X20934063Y-12336198D02*
X20943587Y-12326674D01*
X20943587Y-12326674D02*
X20962634Y-12317150D01*
X20962634Y-12317150D02*
X20991206Y-12317150D01*
X20991206Y-12317150D02*
X21010253Y-12326674D01*
X21010253Y-12326674D02*
X21019777Y-12336198D01*
X21019777Y-12336198D02*
X21029301Y-12355246D01*
X21029301Y-12355246D02*
X21029301Y-12412388D01*
X21029301Y-12412388D02*
X21019777Y-12431436D01*
X21019777Y-12431436D02*
X21010253Y-12440960D01*
X21010253Y-12440960D02*
X20991206Y-12450484D01*
X20991206Y-12450484D02*
X20962634Y-12450484D01*
X21143587Y-12450484D02*
X21124539Y-12440960D01*
X21124539Y-12440960D02*
X21115015Y-12421912D01*
X21115015Y-12421912D02*
X21115015Y-12250484D01*
X21295968Y-12440960D02*
X21276920Y-12450484D01*
X21276920Y-12450484D02*
X21238825Y-12450484D01*
X21238825Y-12450484D02*
X21219777Y-12440960D01*
X21219777Y-12440960D02*
X21210253Y-12421912D01*
X21210253Y-12421912D02*
X21210253Y-12345722D01*
X21210253Y-12345722D02*
X21219777Y-12326674D01*
X21219777Y-12326674D02*
X21238825Y-12317150D01*
X21238825Y-12317150D02*
X21276920Y-12317150D01*
X21276920Y-12317150D02*
X21295968Y-12326674D01*
X21295968Y-12326674D02*
X21305492Y-12345722D01*
X21305492Y-12345722D02*
X21305492Y-12364769D01*
X21305492Y-12364769D02*
X21210253Y-12383817D01*
X21381682Y-12440960D02*
X21400730Y-12450484D01*
X21400730Y-12450484D02*
X21438825Y-12450484D01*
X21438825Y-12450484D02*
X21457873Y-12440960D01*
X21457873Y-12440960D02*
X21467396Y-12421912D01*
X21467396Y-12421912D02*
X21467396Y-12412388D01*
X21467396Y-12412388D02*
X21457873Y-12393341D01*
X21457873Y-12393341D02*
X21438825Y-12383817D01*
X21438825Y-12383817D02*
X21410253Y-12383817D01*
X21410253Y-12383817D02*
X21391206Y-12374293D01*
X21391206Y-12374293D02*
X21381682Y-12355246D01*
X21381682Y-12355246D02*
X21381682Y-12345722D01*
X21381682Y-12345722D02*
X21391206Y-12326674D01*
X21391206Y-12326674D02*
X21410253Y-12317150D01*
X21410253Y-12317150D02*
X21438825Y-12317150D01*
X21438825Y-12317150D02*
X21457873Y-12326674D01*
X21534063Y-12526674D02*
X21543587Y-12517150D01*
X21543587Y-12517150D02*
X21562634Y-12488579D01*
X21562634Y-12488579D02*
X21572158Y-12469531D01*
X21572158Y-12469531D02*
X21581682Y-12440960D01*
X21581682Y-12440960D02*
X21591206Y-12393341D01*
X21591206Y-12393341D02*
X21591206Y-12355246D01*
X21591206Y-12355246D02*
X21581682Y-12307627D01*
X21581682Y-12307627D02*
X21572158Y-12279055D01*
X21572158Y-12279055D02*
X21562634Y-12260008D01*
X21562634Y-12260008D02*
X21543587Y-12231436D01*
X21543587Y-12231436D02*
X21534063Y-12221912D01*
D15*
X16679000Y-12703000D02*
X16759000Y-12623000D01*
X16679000Y-12543000D01*
X16599000Y-12623000D01*
X16679000Y-12703000D01*
D11*
X17124539Y-12714484D02*
X17010253Y-12714484D01*
X17067396Y-12714484D02*
X17067396Y-12514484D01*
X17067396Y-12514484D02*
X17048348Y-12543055D01*
X17048348Y-12543055D02*
X17029301Y-12562103D01*
X17029301Y-12562103D02*
X17010253Y-12571627D01*
X17210253Y-12695436D02*
X17219777Y-12704960D01*
X17219777Y-12704960D02*
X17210253Y-12714484D01*
X17210253Y-12714484D02*
X17200729Y-12704960D01*
X17200729Y-12704960D02*
X17210253Y-12695436D01*
X17210253Y-12695436D02*
X17210253Y-12714484D01*
X17391205Y-12514484D02*
X17353110Y-12514484D01*
X17353110Y-12514484D02*
X17334063Y-12524008D01*
X17334063Y-12524008D02*
X17324539Y-12533531D01*
X17324539Y-12533531D02*
X17305491Y-12562103D01*
X17305491Y-12562103D02*
X17295967Y-12600198D01*
X17295967Y-12600198D02*
X17295967Y-12676388D01*
X17295967Y-12676388D02*
X17305491Y-12695436D01*
X17305491Y-12695436D02*
X17315015Y-12704960D01*
X17315015Y-12704960D02*
X17334063Y-12714484D01*
X17334063Y-12714484D02*
X17372158Y-12714484D01*
X17372158Y-12714484D02*
X17391205Y-12704960D01*
X17391205Y-12704960D02*
X17400729Y-12695436D01*
X17400729Y-12695436D02*
X17410253Y-12676388D01*
X17410253Y-12676388D02*
X17410253Y-12628769D01*
X17410253Y-12628769D02*
X17400729Y-12609722D01*
X17400729Y-12609722D02*
X17391205Y-12600198D01*
X17391205Y-12600198D02*
X17372158Y-12590674D01*
X17372158Y-12590674D02*
X17334063Y-12590674D01*
X17334063Y-12590674D02*
X17315015Y-12600198D01*
X17315015Y-12600198D02*
X17305491Y-12609722D01*
X17305491Y-12609722D02*
X17295967Y-12628769D01*
X17534063Y-12514484D02*
X17553110Y-12514484D01*
X17553110Y-12514484D02*
X17572158Y-12524008D01*
X17572158Y-12524008D02*
X17581682Y-12533531D01*
X17581682Y-12533531D02*
X17591205Y-12552579D01*
X17591205Y-12552579D02*
X17600729Y-12590674D01*
X17600729Y-12590674D02*
X17600729Y-12638293D01*
X17600729Y-12638293D02*
X17591205Y-12676388D01*
X17591205Y-12676388D02*
X17581682Y-12695436D01*
X17581682Y-12695436D02*
X17572158Y-12704960D01*
X17572158Y-12704960D02*
X17553110Y-12714484D01*
X17553110Y-12714484D02*
X17534063Y-12714484D01*
X17534063Y-12714484D02*
X17515015Y-12704960D01*
X17515015Y-12704960D02*
X17505491Y-12695436D01*
X17505491Y-12695436D02*
X17495967Y-12676388D01*
X17495967Y-12676388D02*
X17486444Y-12638293D01*
X17486444Y-12638293D02*
X17486444Y-12590674D01*
X17486444Y-12590674D02*
X17495967Y-12552579D01*
X17495967Y-12552579D02*
X17505491Y-12533531D01*
X17505491Y-12533531D02*
X17515015Y-12524008D01*
X17515015Y-12524008D02*
X17534063Y-12514484D01*
X17724539Y-12514484D02*
X17743586Y-12514484D01*
X17743586Y-12514484D02*
X17762634Y-12524008D01*
X17762634Y-12524008D02*
X17772158Y-12533531D01*
X17772158Y-12533531D02*
X17781682Y-12552579D01*
X17781682Y-12552579D02*
X17791205Y-12590674D01*
X17791205Y-12590674D02*
X17791205Y-12638293D01*
X17791205Y-12638293D02*
X17781682Y-12676388D01*
X17781682Y-12676388D02*
X17772158Y-12695436D01*
X17772158Y-12695436D02*
X17762634Y-12704960D01*
X17762634Y-12704960D02*
X17743586Y-12714484D01*
X17743586Y-12714484D02*
X17724539Y-12714484D01*
X17724539Y-12714484D02*
X17705491Y-12704960D01*
X17705491Y-12704960D02*
X17695967Y-12695436D01*
X17695967Y-12695436D02*
X17686444Y-12676388D01*
X17686444Y-12676388D02*
X17676920Y-12638293D01*
X17676920Y-12638293D02*
X17676920Y-12590674D01*
X17676920Y-12590674D02*
X17686444Y-12552579D01*
X17686444Y-12552579D02*
X17695967Y-12533531D01*
X17695967Y-12533531D02*
X17705491Y-12524008D01*
X17705491Y-12524008D02*
X17724539Y-12514484D01*
X17876920Y-12714484D02*
X17876920Y-12581150D01*
X17876920Y-12600198D02*
X17886444Y-12590674D01*
X17886444Y-12590674D02*
X17905491Y-12581150D01*
X17905491Y-12581150D02*
X17934063Y-12581150D01*
X17934063Y-12581150D02*
X17953110Y-12590674D01*
X17953110Y-12590674D02*
X17962634Y-12609722D01*
X17962634Y-12609722D02*
X17962634Y-12714484D01*
X17962634Y-12609722D02*
X17972158Y-12590674D01*
X17972158Y-12590674D02*
X17991205Y-12581150D01*
X17991205Y-12581150D02*
X18019777Y-12581150D01*
X18019777Y-12581150D02*
X18038825Y-12590674D01*
X18038825Y-12590674D02*
X18048348Y-12609722D01*
X18048348Y-12609722D02*
X18048348Y-12714484D01*
X18143586Y-12714484D02*
X18143586Y-12581150D01*
X18143586Y-12600198D02*
X18153110Y-12590674D01*
X18153110Y-12590674D02*
X18172158Y-12581150D01*
X18172158Y-12581150D02*
X18200729Y-12581150D01*
X18200729Y-12581150D02*
X18219777Y-12590674D01*
X18219777Y-12590674D02*
X18229301Y-12609722D01*
X18229301Y-12609722D02*
X18229301Y-12714484D01*
X18229301Y-12609722D02*
X18238825Y-12590674D01*
X18238825Y-12590674D02*
X18257872Y-12581150D01*
X18257872Y-12581150D02*
X18286444Y-12581150D01*
X18286444Y-12581150D02*
X18305491Y-12590674D01*
X18305491Y-12590674D02*
X18315015Y-12609722D01*
X18315015Y-12609722D02*
X18315015Y-12714484D01*
X18705491Y-12504960D02*
X18534063Y-12762103D01*
X18962634Y-12514484D02*
X18981682Y-12514484D01*
X18981682Y-12514484D02*
X19000729Y-12524008D01*
X19000729Y-12524008D02*
X19010253Y-12533531D01*
X19010253Y-12533531D02*
X19019777Y-12552579D01*
X19019777Y-12552579D02*
X19029301Y-12590674D01*
X19029301Y-12590674D02*
X19029301Y-12638293D01*
X19029301Y-12638293D02*
X19019777Y-12676388D01*
X19019777Y-12676388D02*
X19010253Y-12695436D01*
X19010253Y-12695436D02*
X19000729Y-12704960D01*
X19000729Y-12704960D02*
X18981682Y-12714484D01*
X18981682Y-12714484D02*
X18962634Y-12714484D01*
X18962634Y-12714484D02*
X18943587Y-12704960D01*
X18943587Y-12704960D02*
X18934063Y-12695436D01*
X18934063Y-12695436D02*
X18924539Y-12676388D01*
X18924539Y-12676388D02*
X18915015Y-12638293D01*
X18915015Y-12638293D02*
X18915015Y-12590674D01*
X18915015Y-12590674D02*
X18924539Y-12552579D01*
X18924539Y-12552579D02*
X18934063Y-12533531D01*
X18934063Y-12533531D02*
X18943587Y-12524008D01*
X18943587Y-12524008D02*
X18962634Y-12514484D01*
X19115015Y-12695436D02*
X19124539Y-12704960D01*
X19124539Y-12704960D02*
X19115015Y-12714484D01*
X19115015Y-12714484D02*
X19105491Y-12704960D01*
X19105491Y-12704960D02*
X19115015Y-12695436D01*
X19115015Y-12695436D02*
X19115015Y-12714484D01*
X19248348Y-12514484D02*
X19267396Y-12514484D01*
X19267396Y-12514484D02*
X19286444Y-12524008D01*
X19286444Y-12524008D02*
X19295968Y-12533531D01*
X19295968Y-12533531D02*
X19305491Y-12552579D01*
X19305491Y-12552579D02*
X19315015Y-12590674D01*
X19315015Y-12590674D02*
X19315015Y-12638293D01*
X19315015Y-12638293D02*
X19305491Y-12676388D01*
X19305491Y-12676388D02*
X19295968Y-12695436D01*
X19295968Y-12695436D02*
X19286444Y-12704960D01*
X19286444Y-12704960D02*
X19267396Y-12714484D01*
X19267396Y-12714484D02*
X19248348Y-12714484D01*
X19248348Y-12714484D02*
X19229301Y-12704960D01*
X19229301Y-12704960D02*
X19219777Y-12695436D01*
X19219777Y-12695436D02*
X19210253Y-12676388D01*
X19210253Y-12676388D02*
X19200729Y-12638293D01*
X19200729Y-12638293D02*
X19200729Y-12590674D01*
X19200729Y-12590674D02*
X19210253Y-12552579D01*
X19210253Y-12552579D02*
X19219777Y-12533531D01*
X19219777Y-12533531D02*
X19229301Y-12524008D01*
X19229301Y-12524008D02*
X19248348Y-12514484D01*
X19486444Y-12514484D02*
X19448348Y-12514484D01*
X19448348Y-12514484D02*
X19429301Y-12524008D01*
X19429301Y-12524008D02*
X19419777Y-12533531D01*
X19419777Y-12533531D02*
X19400729Y-12562103D01*
X19400729Y-12562103D02*
X19391206Y-12600198D01*
X19391206Y-12600198D02*
X19391206Y-12676388D01*
X19391206Y-12676388D02*
X19400729Y-12695436D01*
X19400729Y-12695436D02*
X19410253Y-12704960D01*
X19410253Y-12704960D02*
X19429301Y-12714484D01*
X19429301Y-12714484D02*
X19467396Y-12714484D01*
X19467396Y-12714484D02*
X19486444Y-12704960D01*
X19486444Y-12704960D02*
X19495968Y-12695436D01*
X19495968Y-12695436D02*
X19505491Y-12676388D01*
X19505491Y-12676388D02*
X19505491Y-12628769D01*
X19505491Y-12628769D02*
X19495968Y-12609722D01*
X19495968Y-12609722D02*
X19486444Y-12600198D01*
X19486444Y-12600198D02*
X19467396Y-12590674D01*
X19467396Y-12590674D02*
X19429301Y-12590674D01*
X19429301Y-12590674D02*
X19410253Y-12600198D01*
X19410253Y-12600198D02*
X19400729Y-12609722D01*
X19400729Y-12609722D02*
X19391206Y-12628769D01*
X19572158Y-12514484D02*
X19695968Y-12514484D01*
X19695968Y-12514484D02*
X19629301Y-12590674D01*
X19629301Y-12590674D02*
X19657872Y-12590674D01*
X19657872Y-12590674D02*
X19676920Y-12600198D01*
X19676920Y-12600198D02*
X19686444Y-12609722D01*
X19686444Y-12609722D02*
X19695968Y-12628769D01*
X19695968Y-12628769D02*
X19695968Y-12676388D01*
X19695968Y-12676388D02*
X19686444Y-12695436D01*
X19686444Y-12695436D02*
X19676920Y-12704960D01*
X19676920Y-12704960D02*
X19657872Y-12714484D01*
X19657872Y-12714484D02*
X19600729Y-12714484D01*
X19600729Y-12714484D02*
X19581682Y-12704960D01*
X19581682Y-12704960D02*
X19572158Y-12695436D01*
X19819777Y-12514484D02*
X19838825Y-12514484D01*
X19838825Y-12514484D02*
X19857872Y-12524008D01*
X19857872Y-12524008D02*
X19867396Y-12533531D01*
X19867396Y-12533531D02*
X19876920Y-12552579D01*
X19876920Y-12552579D02*
X19886444Y-12590674D01*
X19886444Y-12590674D02*
X19886444Y-12638293D01*
X19886444Y-12638293D02*
X19876920Y-12676388D01*
X19876920Y-12676388D02*
X19867396Y-12695436D01*
X19867396Y-12695436D02*
X19857872Y-12704960D01*
X19857872Y-12704960D02*
X19838825Y-12714484D01*
X19838825Y-12714484D02*
X19819777Y-12714484D01*
X19819777Y-12714484D02*
X19800729Y-12704960D01*
X19800729Y-12704960D02*
X19791206Y-12695436D01*
X19791206Y-12695436D02*
X19781682Y-12676388D01*
X19781682Y-12676388D02*
X19772158Y-12638293D01*
X19772158Y-12638293D02*
X19772158Y-12590674D01*
X19772158Y-12590674D02*
X19781682Y-12552579D01*
X19781682Y-12552579D02*
X19791206Y-12533531D01*
X19791206Y-12533531D02*
X19800729Y-12524008D01*
X19800729Y-12524008D02*
X19819777Y-12514484D01*
X19962634Y-12514484D02*
X19962634Y-12552579D01*
X20038825Y-12514484D02*
X20038825Y-12552579D01*
X20334063Y-12790674D02*
X20324539Y-12781150D01*
X20324539Y-12781150D02*
X20305491Y-12752579D01*
X20305491Y-12752579D02*
X20295968Y-12733531D01*
X20295968Y-12733531D02*
X20286444Y-12704960D01*
X20286444Y-12704960D02*
X20276920Y-12657341D01*
X20276920Y-12657341D02*
X20276920Y-12619246D01*
X20276920Y-12619246D02*
X20286444Y-12571627D01*
X20286444Y-12571627D02*
X20295968Y-12543055D01*
X20295968Y-12543055D02*
X20305491Y-12524008D01*
X20305491Y-12524008D02*
X20324539Y-12495436D01*
X20324539Y-12495436D02*
X20334063Y-12485912D01*
X20391206Y-12514484D02*
X20515015Y-12514484D01*
X20515015Y-12514484D02*
X20448349Y-12590674D01*
X20448349Y-12590674D02*
X20476920Y-12590674D01*
X20476920Y-12590674D02*
X20495968Y-12600198D01*
X20495968Y-12600198D02*
X20505491Y-12609722D01*
X20505491Y-12609722D02*
X20515015Y-12628769D01*
X20515015Y-12628769D02*
X20515015Y-12676388D01*
X20515015Y-12676388D02*
X20505491Y-12695436D01*
X20505491Y-12695436D02*
X20495968Y-12704960D01*
X20495968Y-12704960D02*
X20476920Y-12714484D01*
X20476920Y-12714484D02*
X20419777Y-12714484D01*
X20419777Y-12714484D02*
X20400730Y-12704960D01*
X20400730Y-12704960D02*
X20391206Y-12695436D01*
X20753111Y-12714484D02*
X20753111Y-12514484D01*
X20838825Y-12714484D02*
X20838825Y-12609722D01*
X20838825Y-12609722D02*
X20829301Y-12590674D01*
X20829301Y-12590674D02*
X20810253Y-12581150D01*
X20810253Y-12581150D02*
X20781682Y-12581150D01*
X20781682Y-12581150D02*
X20762634Y-12590674D01*
X20762634Y-12590674D02*
X20753111Y-12600198D01*
X20962634Y-12714484D02*
X20943587Y-12704960D01*
X20943587Y-12704960D02*
X20934063Y-12695436D01*
X20934063Y-12695436D02*
X20924539Y-12676388D01*
X20924539Y-12676388D02*
X20924539Y-12619246D01*
X20924539Y-12619246D02*
X20934063Y-12600198D01*
X20934063Y-12600198D02*
X20943587Y-12590674D01*
X20943587Y-12590674D02*
X20962634Y-12581150D01*
X20962634Y-12581150D02*
X20991206Y-12581150D01*
X20991206Y-12581150D02*
X21010253Y-12590674D01*
X21010253Y-12590674D02*
X21019777Y-12600198D01*
X21019777Y-12600198D02*
X21029301Y-12619246D01*
X21029301Y-12619246D02*
X21029301Y-12676388D01*
X21029301Y-12676388D02*
X21019777Y-12695436D01*
X21019777Y-12695436D02*
X21010253Y-12704960D01*
X21010253Y-12704960D02*
X20991206Y-12714484D01*
X20991206Y-12714484D02*
X20962634Y-12714484D01*
X21143587Y-12714484D02*
X21124539Y-12704960D01*
X21124539Y-12704960D02*
X21115015Y-12685912D01*
X21115015Y-12685912D02*
X21115015Y-12514484D01*
X21295968Y-12704960D02*
X21276920Y-12714484D01*
X21276920Y-12714484D02*
X21238825Y-12714484D01*
X21238825Y-12714484D02*
X21219777Y-12704960D01*
X21219777Y-12704960D02*
X21210253Y-12685912D01*
X21210253Y-12685912D02*
X21210253Y-12609722D01*
X21210253Y-12609722D02*
X21219777Y-12590674D01*
X21219777Y-12590674D02*
X21238825Y-12581150D01*
X21238825Y-12581150D02*
X21276920Y-12581150D01*
X21276920Y-12581150D02*
X21295968Y-12590674D01*
X21295968Y-12590674D02*
X21305492Y-12609722D01*
X21305492Y-12609722D02*
X21305492Y-12628769D01*
X21305492Y-12628769D02*
X21210253Y-12647817D01*
X21381682Y-12704960D02*
X21400730Y-12714484D01*
X21400730Y-12714484D02*
X21438825Y-12714484D01*
X21438825Y-12714484D02*
X21457873Y-12704960D01*
X21457873Y-12704960D02*
X21467396Y-12685912D01*
X21467396Y-12685912D02*
X21467396Y-12676388D01*
X21467396Y-12676388D02*
X21457873Y-12657341D01*
X21457873Y-12657341D02*
X21438825Y-12647817D01*
X21438825Y-12647817D02*
X21410253Y-12647817D01*
X21410253Y-12647817D02*
X21391206Y-12638293D01*
X21391206Y-12638293D02*
X21381682Y-12619246D01*
X21381682Y-12619246D02*
X21381682Y-12609722D01*
X21381682Y-12609722D02*
X21391206Y-12590674D01*
X21391206Y-12590674D02*
X21410253Y-12581150D01*
X21410253Y-12581150D02*
X21438825Y-12581150D01*
X21438825Y-12581150D02*
X21457873Y-12590674D01*
X21534063Y-12790674D02*
X21543587Y-12781150D01*
X21543587Y-12781150D02*
X21562634Y-12752579D01*
X21562634Y-12752579D02*
X21572158Y-12733531D01*
X21572158Y-12733531D02*
X21581682Y-12704960D01*
X21581682Y-12704960D02*
X21591206Y-12657341D01*
X21591206Y-12657341D02*
X21591206Y-12619246D01*
X21591206Y-12619246D02*
X21581682Y-12571627D01*
X21581682Y-12571627D02*
X21572158Y-12543055D01*
X21572158Y-12543055D02*
X21562634Y-12524008D01*
X21562634Y-12524008D02*
X21543587Y-12495436D01*
X21543587Y-12495436D02*
X21534063Y-12485912D01*
M02*
